<svg width="543" height="446" viewBox="0 0 543 446" fill="none" xmlns="http://www.w3.org/2000/svg">
<g clip-path="url(#clip0_195_1586)">
<path d="M404.031 349.274H235.669C232.981 349.271 230.404 348.202 228.504 346.301C226.603 344.401 225.534 341.824 225.531 339.136V218.089C225.534 215.401 226.603 212.824 228.504 210.923C230.404 209.023 232.981 207.954 235.669 207.951H404.031C406.719 207.954 409.296 209.023 411.196 210.923C413.097 212.824 414.166 215.401 414.169 218.089V339.136C414.166 341.824 413.097 344.401 411.196 346.301C409.296 348.202 406.719 349.271 404.031 349.274Z" fill="#E6E6E6"/>
<path d="M238.781 341.192H400.918C402.222 341.192 403.472 340.674 404.394 339.752C405.316 338.831 405.834 337.58 405.834 336.277V220.948C405.834 219.644 405.316 218.394 404.394 217.472C403.472 216.55 402.222 216.032 400.918 216.032H238.781C237.478 216.032 236.227 216.55 235.305 217.472C234.384 218.394 233.866 219.644 233.866 220.948V336.277C233.866 337.58 234.384 338.831 235.305 339.752C236.227 340.674 237.478 341.192 238.781 341.192Z" fill="white"/>
<path d="M178.5 186.767H10.1385C7.45056 186.764 4.87355 185.695 2.97286 183.794C1.07217 181.894 0.00303633 179.317 0 176.629V55.5823C0.00303471 52.8943 1.07217 50.3174 2.97286 48.4167C4.87355 46.516 7.45056 45.4469 10.1385 45.4439H178.5C181.188 45.4469 183.765 46.516 185.665 48.4167C187.566 50.3174 188.635 52.8943 188.638 55.5823V176.629C188.635 179.317 187.566 181.894 185.665 183.794C183.765 185.695 181.188 186.764 178.5 186.767Z" fill="#E6E6E6"/>
<path d="M13.2506 178.685H175.388C176.691 178.685 177.942 178.168 178.863 177.246C179.785 176.324 180.303 175.074 180.303 173.77V58.4412C180.303 57.1375 179.785 55.8872 178.863 54.9653C177.942 54.0435 176.691 53.5256 175.388 53.5256H13.2506C11.9469 53.5256 10.6966 54.0435 9.77472 54.9653C8.85285 55.8872 8.33496 57.1375 8.33496 58.4412V173.77C8.33496 175.074 8.85285 176.324 9.77472 177.246C10.6966 178.168 11.9469 178.685 13.2506 178.685Z" fill="white"/>
<path d="M381.592 251.867H278.025C277.539 251.867 277.058 251.963 276.609 252.149C276.16 252.335 275.753 252.607 275.409 252.951C275.066 253.294 274.793 253.702 274.607 254.15C274.421 254.599 274.326 255.08 274.326 255.566C274.326 256.052 274.421 256.533 274.607 256.981C274.793 257.43 275.066 257.838 275.409 258.181C275.753 258.525 276.16 258.797 276.609 258.983C277.058 259.169 277.539 259.265 278.025 259.265H381.592C382.573 259.265 383.513 258.875 384.207 258.181C384.901 257.488 385.29 256.547 385.29 255.566C385.29 254.585 384.901 253.644 384.207 252.951C383.513 252.257 382.573 251.867 381.592 251.867Z" fill="#E6E6E6"/>
<path d="M278.025 274.629C277.539 274.629 277.058 274.725 276.609 274.911C276.16 275.096 275.753 275.369 275.409 275.712C275.066 276.056 274.793 276.464 274.607 276.912C274.421 277.361 274.326 277.842 274.326 278.328C274.326 278.813 274.421 279.294 274.607 279.743C274.793 280.192 275.066 280.6 275.409 280.943C275.753 281.287 276.16 281.559 276.609 281.745C277.058 281.931 277.539 282.027 278.025 282.027H381.592C382.573 282.027 383.513 281.637 384.207 280.943C384.901 280.25 385.29 279.309 385.29 278.328C385.29 277.347 384.901 276.406 384.207 275.712C383.513 275.019 382.573 274.629 381.592 274.629H278.025Z" fill="#E6E6E6"/>
<path d="M278.025 297.391C277.044 297.391 276.103 297.78 275.409 298.474C274.715 299.168 274.326 300.108 274.326 301.089C274.326 302.07 274.715 303.011 275.409 303.705C276.103 304.399 277.044 304.788 278.025 304.788H381.592C382.573 304.788 383.513 304.399 384.207 303.705C384.901 303.011 385.29 302.07 385.29 301.089C385.29 300.108 384.901 299.168 384.207 298.474C383.513 297.78 382.573 297.391 381.592 297.391H278.025Z" fill="#E6E6E6"/>
<path d="M258.392 260.403C260.906 260.403 262.945 258.365 262.945 255.85C262.945 253.336 260.906 251.298 258.392 251.298C255.878 251.298 253.84 253.336 253.84 255.85C253.84 258.365 255.878 260.403 258.392 260.403Z" fill="#2DC653"/>
<path d="M258.392 283.165C260.906 283.165 262.945 281.126 262.945 278.612C262.945 276.098 260.906 274.06 258.392 274.06C255.878 274.06 253.84 276.098 253.84 278.612C253.84 281.126 255.878 283.165 258.392 283.165Z" fill="#E6E6E6"/>
<path d="M258.392 305.926C260.906 305.926 262.945 303.888 262.945 301.374C262.945 298.86 260.906 296.822 258.392 296.822C255.878 296.822 253.84 298.86 253.84 301.374C253.84 303.888 255.878 305.926 258.392 305.926Z" fill="#E6E6E6"/>
<path d="M340.336 255.566C340.336 256.052 340.24 256.533 340.054 256.981C339.868 257.43 339.596 257.838 339.252 258.181C338.909 258.525 338.501 258.797 338.052 258.983C337.603 259.169 337.123 259.265 336.637 259.265H278.158C277.244 259.278 276.356 258.961 275.658 258.372C274.96 257.782 274.498 256.96 274.358 256.057C274.289 255.535 274.332 255.004 274.485 254.499C274.637 253.995 274.896 253.529 275.243 253.132C275.59 252.736 276.017 252.418 276.497 252.2C276.977 251.981 277.498 251.868 278.025 251.867H336.637C337.618 251.867 338.559 252.257 339.252 252.95C339.946 253.644 340.336 254.585 340.336 255.566V255.566Z" fill="#2DC653"/>
<path d="M319.85 192.402C328.021 192.402 334.645 185.778 334.645 177.607C334.645 169.436 328.021 162.812 319.85 162.812C311.679 162.812 305.054 169.436 305.054 177.607C305.054 185.778 311.679 192.402 319.85 192.402Z" fill="#E6E6E6"/>
<path d="M327.152 178.792C327.806 174.759 325.068 170.959 321.035 170.305C317.002 169.65 313.202 172.389 312.548 176.422C311.893 180.455 314.632 184.255 318.665 184.909C322.698 185.563 326.498 182.825 327.152 178.792Z" fill="white"/>
<path d="M25.2362 112.591C24.264 112.591 23.3316 112.977 22.6442 113.665C21.9568 114.352 21.5706 115.284 21.5706 116.257C21.5706 117.229 21.9568 118.161 22.6442 118.849C23.3316 119.536 24.264 119.922 25.2362 119.922H163.402C164.374 119.922 165.306 119.536 165.994 118.849C166.681 118.161 167.068 117.229 167.068 116.257C167.068 115.284 166.681 114.352 165.994 113.665C165.306 112.977 164.374 112.591 163.402 112.591H25.2362Z" fill="#E6E6E6"/>
<path d="M25.2362 135.148C24.264 135.148 23.3316 135.535 22.6442 136.222C21.9568 136.909 21.5706 137.842 21.5706 138.814C21.5706 139.786 21.9568 140.719 22.6442 141.406C23.3316 142.093 24.264 142.48 25.2362 142.48H163.402C164.374 142.48 165.306 142.093 165.994 141.406C166.681 140.719 167.068 139.786 167.068 138.814C167.068 137.842 166.681 136.909 165.994 136.222C165.306 135.535 164.374 135.148 163.402 135.148H25.2362Z" fill="#E6E6E6"/>
<path d="M86.9879 158.834C86.0157 158.834 85.0834 159.22 84.3959 159.907C83.7085 160.595 83.3223 161.527 83.3223 162.499C83.3223 163.471 83.7085 164.404 84.3959 165.091C85.0834 165.779 86.0157 166.165 86.9879 166.165H101.65C102.623 166.165 103.555 165.779 104.242 165.091C104.93 164.404 105.316 163.471 105.316 162.499C105.316 161.527 104.93 160.595 104.242 159.907C103.555 159.22 102.623 158.834 101.65 158.834H86.9879Z" fill="#2DC653"/>
<path d="M74.6713 66.0462C74.3723 66.0465 74.0856 66.1654 73.8741 66.3769C73.6627 66.5883 73.5438 66.875 73.5435 67.1741V95.8051C73.5438 96.1041 73.6627 96.3908 73.8741 96.6023C74.0856 96.8137 74.3723 96.9327 74.6713 96.933H113.967C114.266 96.9327 114.552 96.8137 114.764 96.6023C114.975 96.3908 115.094 96.1041 115.094 95.8051V67.1741C115.094 66.875 114.975 66.5883 114.764 66.3769C114.552 66.1654 114.266 66.0465 113.967 66.0462L74.6713 66.0462Z" fill="#2DC653"/>
<path d="M94.3191 84.5264C97.7451 84.5264 100.522 81.7491 100.522 78.3231C100.522 74.8971 97.7451 72.1198 94.3191 72.1198C90.8931 72.1198 88.1157 74.8971 88.1157 78.3231C88.1157 81.7491 90.8931 84.5264 94.3191 84.5264Z" fill="white"/>
<path d="M104.47 94.1133C104.472 95.0937 104.24 96.0604 103.793 96.933H84.8449C84.362 95.9872 84.13 94.9334 84.1712 93.8723C84.2123 92.8112 84.5252 91.7784 85.0798 90.8729C85.6344 89.9674 86.4123 89.2194 87.3388 88.7006C88.2654 88.1818 89.3096 87.9096 90.3715 87.91H98.2667C99.911 87.9091 101.488 88.5614 102.652 89.7234C103.815 90.8854 104.469 92.462 104.47 94.1063V94.1133Z" fill="white"/>
<path d="M94.3191 84.5264C97.7451 84.5264 100.522 81.7491 100.522 78.3231C100.522 74.8971 97.7451 72.1198 94.3191 72.1198C90.8931 72.1198 88.1157 74.8971 88.1157 78.3231C88.1157 81.7491 90.8931 84.5264 94.3191 84.5264Z" fill="white"/>
<path d="M104.47 94.1133C104.472 95.0937 104.24 96.0604 103.793 96.933H84.8449C84.362 95.9872 84.13 94.9334 84.1712 93.8723C84.2123 92.8112 84.5252 91.7784 85.0798 90.8729C85.6344 89.9674 86.4123 89.2194 87.3388 88.7006C88.2654 88.1818 89.3096 87.9096 90.3715 87.91H98.2667C99.911 87.9091 101.488 88.5614 102.652 89.7234C103.815 90.8854 104.469 92.462 104.47 94.1063V94.1133Z" fill="white"/>
<path d="M94.319 29.8246C102.417 29.8246 108.981 23.2601 108.981 15.1623C108.981 7.06454 102.417 0.5 94.319 0.5C86.2211 0.5 79.6565 7.06454 79.6565 15.1623C79.6565 23.2601 86.2211 29.8246 94.319 29.8246Z" fill="#E6E6E6"/>
<path d="M94.319 22.4935C98.368 22.4935 101.65 19.2112 101.65 15.1623C101.65 11.1134 98.368 7.83116 94.319 7.83116C90.2701 7.83116 86.9878 11.1134 86.9878 15.1623C86.9878 19.2112 90.2701 22.4935 94.319 22.4935Z" fill="#2DC653"/>
<path d="M459.687 437.521L452.662 437.52L449.321 410.426L459.689 410.427L459.687 437.521Z" fill="#FFB8B8"/>
<path d="M447.644 435.514H461.192V444.043H439.115C439.115 442.923 439.335 441.814 439.764 440.779C440.192 439.744 440.821 438.804 441.613 438.012C442.405 437.22 443.345 436.592 444.38 436.163C445.415 435.734 446.524 435.514 447.644 435.514Z" fill="#2F2E41"/>
<path d="M497.551 437.521L490.525 437.52L487.185 410.426L497.553 410.427L497.551 437.521Z" fill="#FFB8B8"/>
<path d="M485.508 435.514H499.055V444.043H476.978C476.978 442.923 477.199 441.814 477.627 440.779C478.056 439.744 478.684 438.804 479.476 438.012C480.268 437.22 481.209 436.592 482.244 436.163C483.279 435.734 484.388 435.514 485.508 435.514Z" fill="#2F2E41"/>
<path d="M476.978 244.907C485.313 244.907 492.069 238.15 492.069 229.815C492.069 221.48 485.313 214.724 476.978 214.724C468.643 214.724 461.886 221.48 461.886 229.815C461.886 238.15 468.643 244.907 476.978 244.907Z" fill="#FFB8B8"/>
<path d="M425.374 328.237C425.479 327.401 425.767 326.598 426.216 325.886C426.665 325.173 427.265 324.568 427.973 324.112C428.682 323.656 429.481 323.361 430.316 323.248C431.151 323.135 432 323.206 432.804 323.457L441.238 313.346L448.633 316.973L436.521 331.084C436.011 332.407 435.033 333.497 433.773 334.147C432.512 334.797 431.057 334.962 429.683 334.611C428.309 334.26 427.112 333.418 426.317 332.243C425.523 331.068 425.188 329.642 425.374 328.237Z" fill="#FFB8B8"/>
<path d="M497.962 338.462C497.603 337.7 497.415 336.869 497.411 336.027C497.408 335.184 497.589 334.351 497.942 333.587C498.296 332.822 498.812 332.144 499.456 331.601C500.1 331.058 500.855 330.662 501.668 330.442L503.361 317.385L511.547 316.479L508.897 334.884C509.176 336.275 508.935 337.719 508.22 338.944C507.506 340.169 506.366 341.089 505.018 341.53C503.671 341.971 502.208 341.902 500.907 341.337C499.607 340.771 498.559 339.748 497.962 338.462L497.962 338.462Z" fill="#FFB8B8"/>
<path d="M489.59 258.32C490.392 257.289 491.453 256.489 492.663 255.999C493.874 255.509 495.193 255.348 496.486 255.53C497.779 255.713 499.002 256.233 500.029 257.039C501.057 257.845 501.854 258.908 502.34 260.12L514.71 290.991C515.974 294.145 516.377 297.579 515.878 300.941L511.849 328.074C511.797 328.424 511.67 328.759 511.476 329.055C511.283 329.352 511.028 329.603 510.729 329.792C510.429 329.981 510.093 330.102 509.742 330.149C509.391 330.196 509.034 330.166 508.696 330.062L503.387 328.432C502.838 328.263 502.365 327.907 502.05 327.426C501.736 326.944 501.601 326.368 501.668 325.796C503.542 309.822 501.065 293.639 494.501 278.956L488.67 265.912C488.12 264.682 487.915 263.326 488.077 261.989C488.239 260.651 488.762 259.383 489.59 258.32Z" fill="#2DC653"/>
<path d="M480.652 244.906C482.923 244.955 485.18 244.523 487.272 243.638C489.364 242.753 491.246 241.435 492.793 239.772C494.34 238.108 495.517 236.135 496.247 233.984C496.977 231.833 497.244 229.551 497.03 227.289C496.816 225.028 496.125 222.837 495.004 220.861C493.883 218.885 492.356 217.169 490.524 215.825C488.692 214.481 486.597 213.541 484.375 213.064C482.154 212.588 479.857 212.587 477.635 213.062C474.316 211.047 470.458 209.691 466.59 210.036C462.723 210.381 458.898 212.677 457.452 216.28C456.006 219.883 457.56 224.633 461.156 226.097C463.461 227.036 466.064 226.581 468.524 226.202C470.985 225.824 473.669 225.577 475.81 226.846C477.951 228.115 478.913 231.519 476.996 233.106C475.979 233.981 475.253 235.144 474.915 236.442C474.576 237.739 474.641 239.109 475.101 240.369C476.064 242.862 478.695 244.864 480.652 244.906Z" fill="#2F2E41"/>
<path d="M499.377 327.64L502.054 429.233C502.063 429.571 502.001 429.908 501.874 430.222C501.746 430.536 501.556 430.82 501.313 431.057C501.071 431.293 500.782 431.477 500.465 431.597C500.148 431.716 499.81 431.769 499.471 431.752L490.653 431.302C490.09 431.273 489.554 431.052 489.135 430.676C488.716 430.299 488.439 429.79 488.351 429.233L477.861 363.248C477.816 362.966 477.674 362.708 477.46 362.519C477.245 362.33 476.971 362.222 476.686 362.213C476.4 362.204 476.12 362.295 475.894 362.47C475.668 362.646 475.51 362.894 475.448 363.173L461.25 426.705C461.174 427.045 461.026 427.364 460.818 427.643C460.609 427.921 460.344 428.152 460.039 428.32C459.735 428.489 459.398 428.59 459.051 428.619C458.704 428.647 458.355 428.601 458.027 428.485L449.275 427.95C448.769 427.77 448.336 427.429 448.042 426.979C447.747 426.53 447.609 425.996 447.647 425.46L455.287 326.678L499.377 327.64Z" fill="#2F2E41"/>
<path d="M503.673 279.387C505.149 263.991 493.83 250.066 478.402 248.971C471.755 248.499 461.436 248.33 458.034 257.043C447.787 283.288 465.726 282.65 459.545 305.389C453.364 328.128 447.905 329.432 456.386 331.074C464.866 332.716 503.003 342.408 501.437 326.404C500.474 316.566 502.2 294.744 503.673 279.387Z" fill="#2DC653"/>
<path d="M459.849 254.373C461.067 253.902 462.388 253.76 463.678 253.962C464.968 254.164 466.183 254.703 467.198 255.524C468.214 256.346 468.995 257.42 469.462 258.64C469.93 259.859 470.067 261.181 469.861 262.47L465.044 292.573C464.22 297.72 462.044 302.557 458.736 306.587L443.093 325.649C442.868 325.923 442.587 326.145 442.269 326.3C441.951 326.455 441.603 326.539 441.249 326.547C440.895 326.555 440.544 326.487 440.219 326.347C439.894 326.207 439.603 325.998 439.366 325.735L435.65 321.608C435.266 321.181 435.043 320.632 435.021 320.058C434.999 319.483 435.179 318.919 435.53 318.463L436.624 317.043C445.725 305.233 451.467 291.183 453.242 276.379L455.157 260.413C455.318 259.075 455.839 257.807 456.665 256.743C457.492 255.679 458.592 254.86 459.849 254.373Z" fill="#2DC653"/>
<path d="M542.386 445.5H383.856C383.693 445.5 383.537 445.435 383.421 445.32C383.306 445.205 383.241 445.048 383.241 444.886C383.241 444.723 383.306 444.566 383.421 444.451C383.537 444.336 383.693 444.271 383.856 444.271H542.386C542.549 444.271 542.705 444.336 542.82 444.451C542.935 444.566 543 444.723 543 444.886C543 445.048 542.935 445.205 542.82 445.32C542.705 445.435 542.549 445.5 542.386 445.5Z" fill="#CCCCCC"/>
</g>
<defs>
<clipPath id="clip0_195_1586">
<rect width="543" height="445" fill="white" transform="translate(0 0.5)"/>
</clipPath>
</defs>
</svg>
