<svg width="630" height="469" viewBox="0 0 630 469" fill="none" xmlns="http://www.w3.org/2000/svg">
<g clip-path="url(#clip0_195_1538)">
<path d="M342.774 47.8328C350.989 47.8328 357.649 41.1784 357.649 32.9697C357.649 24.7611 350.989 18.1066 342.774 18.1066C334.559 18.1066 327.899 24.7611 327.899 32.9697C327.899 41.1784 334.559 47.8328 342.774 47.8328Z" fill="#2DC653"/>
<path d="M341.3 38.6396C340.965 38.6401 340.64 38.5319 340.372 38.3313L340.355 38.3189L336.859 35.6469C336.178 35.1252 336.05 34.1509 336.572 33.4705C337.094 32.7901 338.069 32.6614 338.75 33.183L341.014 34.918L346.365 27.943C346.886 27.2629 347.861 27.1343 348.542 27.6556L348.542 27.6557L348.542 27.656L348.509 27.7021L348.543 27.656C349.223 28.1781 349.351 29.1515 348.83 29.8319L342.537 38.0323C342.242 38.4153 341.785 38.6391 341.301 38.6377L341.3 38.6396V38.6396Z" fill="white"/>
<path d="M342.774 148.312C350.989 148.312 357.649 141.658 357.649 133.449C357.649 125.24 350.989 118.586 342.774 118.586C334.559 118.586 327.899 125.24 327.899 133.449C327.899 141.658 334.559 148.312 342.774 148.312Z" fill="#2DC653"/>
<path d="M341.3 139.119C340.965 139.119 340.64 139.011 340.372 138.81L340.355 138.798L336.859 136.126C336.178 135.604 336.05 134.63 336.572 133.95C337.094 133.269 338.069 133.141 338.75 133.662L341.014 135.397L346.365 128.422C346.886 127.742 347.861 127.613 348.542 128.135L348.542 128.135L348.542 128.135L348.509 128.181L348.543 128.135C349.223 128.657 349.351 129.631 348.83 130.311L342.537 138.512C342.242 138.894 341.785 139.118 341.301 139.117L341.3 139.119V139.119Z" fill="white"/>
<path d="M380.13 289.63C379.948 284.975 383.576 281.054 388.235 280.871C388.732 280.852 389.229 280.876 389.722 280.944L403.345 254.237L411.043 267.783L396.926 291.068C395.978 295.655 391.488 298.606 386.897 297.659C383.056 296.867 380.258 293.548 380.13 289.63L380.13 289.63V289.63Z" fill="#FFB7B7"/>
<path d="M443.644 457.803L432.952 457.803L427.866 416.597L443.645 416.598L443.644 457.803Z" fill="#FFB7B7"/>
<path d="M446.37 468.159L411.897 468.157V467.722C411.897 460.317 417.905 454.315 425.315 454.315H425.316L446.371 454.315L446.37 468.159V468.159Z" fill="#2F2E41"/>
<path d="M501.601 457.803L490.909 457.803L485.823 416.597L501.602 416.598L501.601 457.803Z" fill="#FFB7B7"/>
<path d="M504.327 468.159L469.854 468.157V467.722C469.855 460.317 475.862 454.315 483.272 454.315H483.273L504.328 454.315L504.327 468.159V468.159Z" fill="#2F2E41"/>
<path d="M396.552 266.386L391.884 274.159C391.884 274.159 399.663 274.159 401.219 285.818L407.442 278.045L396.552 266.386V266.386Z" fill="#E5E5E5"/>
<path d="M478.228 250.064C478.228 250.064 490.674 282.709 493.008 302.918C495.341 323.126 499.231 376.757 499.231 376.757L507.009 445.934L485.229 449.043L475.894 379.089L454.892 309.913L450.225 379.089L446.335 442.047L426.11 442.824L424.555 377.535L415.998 294.368L420.665 254.727L478.228 250.064V250.064Z" fill="#2F2E41"/>
<path d="M463.06 150.964L470.839 156.404L480.951 258.225L417.943 259.779L426.5 189.049L434.279 168.84L439.893 161.423L463.06 150.964Z" fill="#E5E5E5"/>
<path d="M464.616 224.026L466.996 153.716C466.996 153.716 471.617 154.072 473.172 156.404C474.728 158.736 500.398 163.399 500.398 163.399L495.731 235.685C495.731 235.685 515.178 293.202 508.177 296.311C501.176 299.42 488.73 298.643 488.73 298.643L464.616 224.026V224.026Z" fill="#2F2E41"/>
<path d="M426.888 215.087L435.14 167.701L416.776 180.11L421.443 214.31L417.554 237.628C417.554 237.628 402.774 302.14 407.442 304.472C412.109 306.804 417.554 304.472 417.554 304.472L426.888 239.182V215.087V215.087Z" fill="#2F2E41"/>
<path d="M422.221 178.556L416.776 180.111L414.443 211.201L410.553 238.405L391.884 271.827C391.884 271.827 401.219 265.609 405.108 283.486L425.668 247.719L422.221 178.556Z" fill="#2F2E41"/>
<path d="M464.533 283.256C465.258 278.654 469.58 275.511 474.185 276.236C474.676 276.313 475.159 276.433 475.629 276.596L494.182 253.039L499.102 267.82L480.73 287.924C478.909 292.24 473.931 294.264 469.611 292.445C465.997 290.922 463.897 287.124 464.533 283.256V283.256Z" fill="#FFB7B7"/>
<path d="M496.119 274.936L489.119 283.486L479.784 267.164L483.673 260.169L496.119 274.936Z" fill="#E5E5E5"/>
<path d="M494.564 166.12L500.787 163.011C500.787 163.011 505.454 169.229 506.232 174.67C507.01 180.11 510.899 187.106 510.899 190.992C510.899 194.878 521.789 231.41 521.789 231.41L496.897 281.932C496.897 281.932 491.452 263.277 479.784 261.723L499.231 234.519L488.341 215.087L494.564 166.12V166.12Z" fill="#2F2E41"/>
<path d="M629.215 468.638H329.896C329.462 468.638 329.11 468.286 329.11 467.853C329.11 467.419 329.462 467.068 329.896 467.068H629.215C629.649 467.068 630 467.419 630 467.853C630 468.286 629.649 468.638 629.215 468.638V468.638Z" fill="#CBCBCB"/>
<path d="M286.749 166.419H0V100.479H286.749V166.419Z" fill="white"/>
<path d="M41.3843 122.282C39.8412 122.282 38.5903 123.532 38.5903 125.074C38.5903 126.615 39.8412 127.865 41.3843 127.865H245.376C246.919 127.865 248.17 126.615 248.17 125.074C248.17 123.532 246.919 122.282 245.376 122.282H41.3843Z" fill="#2DC653"/>
<path d="M41.3843 139.032C39.8413 139.029 38.5877 140.276 38.5845 141.818C38.5812 143.36 39.8295 144.613 41.3725 144.616H170.338C171.881 144.616 173.132 143.366 173.132 141.824C173.132 140.282 171.881 139.032 170.338 139.032H41.3843V139.032Z" fill="#2DC653"/>
<path d="M286.749 166.419H0V100.479H286.749V166.419ZM4.71368 161.709H282.035V105.189H4.71368V161.709Z" fill="#E5E5E5"/>
<path d="M286.749 266.898H0V200.958H286.749V266.898Z" fill="white"/>
<path d="M41.3843 222.761C39.8412 222.761 38.5903 224.011 38.5903 225.553C38.5903 227.095 39.8412 228.345 41.3843 228.345H245.376C246.919 228.345 248.17 227.095 248.17 225.553C248.17 224.011 246.919 222.761 245.376 222.761H41.3843Z" fill="#E6E6E6"/>
<path d="M41.3843 239.512C39.8413 239.508 38.5877 240.756 38.5845 242.297C38.5812 243.839 39.8295 245.092 41.3726 245.095H170.338C171.881 245.095 173.132 243.845 173.132 242.303C173.132 240.761 171.881 239.512 170.338 239.512H41.3843V239.512Z" fill="#E6E6E6"/>
<path d="M286.749 266.898H0V200.958H286.749V266.898ZM4.71368 262.188H282.035V205.668H4.71368V262.188Z" fill="#E5E5E5"/>
<path d="M289.106 65.9394H2.35693V0H289.106V65.9394Z" fill="white"/>
<path d="M43.7413 21.8027C42.1982 21.8055 40.9496 23.0577 40.9524 24.5995C40.9552 26.1374 42.2022 27.3834 43.7413 27.3862H247.733C249.276 27.3834 250.525 26.1312 250.522 24.5894C250.519 23.0515 249.272 21.8055 247.733 21.8027H43.7413V21.8027Z" fill="#2DC653"/>
<path d="M43.7413 38.5532C42.1982 38.55 40.9447 39.7973 40.9414 41.3391C40.9382 42.8809 42.1864 44.1335 43.7295 44.1367H172.695C174.238 44.1395 175.491 42.8919 175.494 41.3501C175.497 39.8082 174.248 38.556 172.705 38.5532C172.702 38.5532 172.699 38.5532 172.695 38.5532H43.7413V38.5532Z" fill="#2DC653"/>
<path d="M289.106 65.9394H2.35693V0H289.106V65.9394ZM7.07061 61.2295H284.392V4.70996H7.07061V61.2295Z" fill="#E5E5E5"/>
<path d="M580.763 469V412.214C580.763 412.214 602.911 452.473 580.763 469Z" fill="#F1F1F1"/>
<path d="M582.131 468.99L540.266 430.587C540.266 430.587 584.924 441.511 582.131 468.99Z" fill="#F1F1F1"/>
<path d="M380.484 287.92C388.699 287.92 395.359 281.265 395.359 273.056C395.359 264.848 388.699 258.193 380.484 258.193C372.269 258.193 365.609 264.848 365.609 273.056C365.609 281.265 372.269 287.92 380.484 287.92Z" fill="#2DC653"/>
<path d="M379.009 278.726C378.675 278.727 378.349 278.619 378.081 278.418L378.065 278.406L374.569 275.734C373.888 275.212 373.759 274.238 374.281 273.557C374.803 272.877 375.778 272.748 376.459 273.27L378.724 275.005L384.074 268.03C384.596 267.35 385.571 267.221 386.251 267.742L386.252 267.743L386.219 267.789L386.253 267.743C386.932 268.265 387.061 269.238 386.54 269.919L380.246 278.119C379.951 278.502 379.494 278.726 379.011 278.724L379.009 278.726V278.726Z" fill="white"/>
<path d="M441.19 152.252C452.949 152.252 462.482 142.726 462.482 130.976C462.482 119.226 452.949 109.701 441.19 109.701C429.43 109.701 419.897 119.226 419.897 130.976C419.897 142.726 429.43 152.252 441.19 152.252Z" fill="#FFB6B6"/>
<path d="M459.79 147.323C459.79 147.323 466.096 134.561 465.984 129.689C465.871 124.817 462.426 112.279 460.972 111.452C459.518 110.625 443.838 102.671 439.588 105.062C435.339 107.454 427.86 115.635 419.795 117.848C417.513 118.474 419.505 130.185 419.505 130.185L428.944 128.821C428.944 128.821 438.784 119.992 439.21 126.004C439.635 132.016 448.761 129.512 448.761 129.512L448.873 134.384L452.609 134.585L453.637 129.399C453.637 129.399 455.315 139.97 453.146 145.469C450.977 150.967 459.79 147.323 459.79 147.323V147.323Z" fill="#2F2E41"/>
</g>
<defs>
<clipPath id="clip0_195_1538">
<rect width="630" height="469" fill="white"/>
</clipPath>
</defs>
</svg>
