<svg width="46" height="36" viewBox="0 0 46 36" fill="none" xmlns="http://www.w3.org/2000/svg">
<path d="M13.225 6.1875C13.225 8.36016 11.4209 10.125 9.2 10.125C6.97691 10.125 5.175 8.36016 5.175 6.1875C5.175 4.01273 6.97691 2.25 9.2 2.25C11.4209 2.25 13.225 4.01273 13.225 6.1875ZM14.9787 13.8023C12.8441 15.6586 11.5 18.3656 11.5 21.375C11.5 23.7867 12.2978 26.0016 13.8 27.7383V29.25C13.8 30.4945 12.7722 31.5 11.5 31.5H6.9C5.62997 31.5 4.6 30.4945 4.6 29.25V27.3656C1.88025 26.1 0 23.393 0 20.25C0 15.8977 3.60381 12.375 8.05 12.375H10.35C12.0103 12.375 13.6706 12.9023 14.9787 13.8023ZM4.6 17.2758C3.88412 18.0633 3.45 19.1109 3.45 20.25C3.45 21.3891 3.88412 22.4367 4.6 23.2242V17.2758ZM32.2 29.25V27.7383C33.6375 26.0016 34.5 23.7867 34.5 21.375C34.5 18.3656 33.1559 15.6586 31.0212 13.8023C32.3294 12.9023 33.925 12.375 35.65 12.375H37.95C42.3991 12.375 46 15.8977 46 20.25C46 23.393 44.1169 26.1 41.4 27.3656V29.25C41.4 30.4945 40.3722 31.5 39.1 31.5H34.5C33.2278 31.5 32.2 30.4945 32.2 29.25ZM41.4 23.2242C42.0541 22.4367 42.55 21.3891 42.55 20.25C42.55 19.1109 42.0541 18.0633 41.4 17.2758V23.2242ZM40.825 6.1875C40.825 8.36016 39.0209 10.125 36.8 10.125C34.5791 10.125 32.775 8.36016 32.775 6.1875C32.775 4.01273 34.5791 2.25 36.8 2.25C39.0209 2.25 40.825 4.01273 40.825 6.1875ZM18.4 6.75C18.4 4.26445 20.4628 2.25 23 2.25C25.5372 2.25 27.6 4.26445 27.6 6.75C27.6 9.23203 25.5372 11.25 23 11.25C20.4628 11.25 18.4 9.23203 18.4 6.75ZM32.2 21.375C32.2 24.518 30.3169 27.225 27.6 28.4906V31.5C27.6 32.7445 26.5722 33.75 25.3 33.75H20.7C19.4278 33.75 18.4 32.7445 18.4 31.5V28.4906C15.6831 27.225 13.8 24.518 13.8 21.375C13.8 17.0227 17.4009 13.5 21.85 13.5H24.15C28.5991 13.5 32.2 17.0227 32.2 21.375ZM18.4 24.3492V18.4008C17.6812 19.1883 17.25 20.2359 17.25 21.375C17.25 22.5141 17.6812 23.5617 18.4 24.3492ZM27.6 18.4008V24.3492C28.2541 23.5547 28.75 22.5141 28.75 21.375C28.75 20.2359 28.2541 19.1883 27.6 18.4008Z" fill="#2DC653"/>
</svg>
