<svg width="141" height="36" viewBox="0 0 141 36" fill="none" xmlns="http://www.w3.org/2000/svg">
<path d="M14 10.5C14 11.6935 13.5259 12.8381 12.682 13.682C11.8381 14.5259 10.6935 15 9.5 15C8.90901 15.0001 8.32379 14.8838 7.77777 14.6577C7.23174 14.4316 6.73562 14.1002 6.31773 13.6823C5.89984 13.2644 5.56837 12.7683 5.34227 12.2222C5.11618 11.6762 4.99987 11.091 5 10.5C5 8.014 7.014 6 9.5 6C11.986 6 14 8.014 14 10.5ZM0 22.333C0 18.787 6.33 17 9.5 17C12.67 17 19 18.787 19 22.333V30H0V22.333ZM35 10.5C35 11.6935 34.5259 12.8381 33.682 13.682C32.8381 14.5259 31.6935 15 30.5 15C29.909 15.0001 29.3238 14.8838 28.7778 14.6577C28.2317 14.4316 27.7356 14.1002 27.3177 13.6823C26.8998 13.2644 26.5684 12.7683 26.3423 12.2222C26.1162 11.6762 25.9999 11.091 26 10.5C26 8.014 28.014 6 30.5 6C32.986 6 35 8.014 35 10.5ZM23 9C23 9.79565 22.6839 10.5587 22.1213 11.1213C21.5587 11.6839 20.7956 12 20 12C19.2044 12 18.4413 11.6839 17.8787 11.1213C17.3161 10.5587 17 9.79565 17 9C17 8.20435 17.3161 7.44129 17.8787 6.87868C18.4413 6.31607 19.2044 6 20 6C20.7956 6 21.5587 6.31607 22.1213 6.87868C22.6839 7.44129 23 8.20435 23 9ZM21 22.333C21 18.787 27.33 17 30.5 17C33.67 17 40 18.787 40 22.333V30H21V22.333Z" fill="#2DC653"/>
<path fill-rule="evenodd" clip-rule="evenodd" d="M24.75 16.185C24.484 16.283 24.22 16.387 23.962 16.498C22.792 16.998 21.609 17.674 20.69 18.578C20.444 18.821 20.21 19.086 20 19.375C19.7921 19.091 19.5613 18.8245 19.31 18.578C18.391 17.674 17.209 16.998 16.037 16.498C15.7771 16.3869 15.5143 16.2825 15.249 16.185C16.772 15.396 18.73 15 20 15C21.27 15 23.228 15.396 24.75 16.185Z" fill="#2DC653"/>
<path d="M49.992 26.5V9.7H57.624C59.448 9.7 61.056 10.052 62.448 10.756C63.84 11.444 64.928 12.412 65.712 13.66C66.496 14.908 66.888 16.388 66.888 18.1C66.888 19.796 66.496 21.276 65.712 22.54C64.928 23.788 63.84 24.764 62.448 25.468C61.056 26.156 59.448 26.5 57.624 26.5H49.992ZM53.88 23.308H57.432C58.552 23.308 59.52 23.1 60.336 22.684C61.168 22.252 61.808 21.644 62.256 20.86C62.72 20.076 62.952 19.156 62.952 18.1C62.952 17.028 62.72 16.108 62.256 15.34C61.808 14.556 61.168 13.956 60.336 13.54C59.52 13.108 58.552 12.892 57.432 12.892H53.88V23.308ZM75.7001 26.692C74.3241 26.692 73.1001 26.404 72.0281 25.828C70.9721 25.252 70.1321 24.468 69.5081 23.476C68.9001 22.468 68.5961 21.324 68.5961 20.044C68.5961 18.748 68.9001 17.604 69.5081 16.612C70.1321 15.604 70.9721 14.82 72.0281 14.26C73.1001 13.684 74.3241 13.396 75.7001 13.396C77.0601 13.396 78.2761 13.684 79.3481 14.26C80.4201 14.82 81.2601 15.596 81.8681 16.588C82.4761 17.58 82.7801 18.732 82.7801 20.044C82.7801 21.324 82.4761 22.468 81.8681 23.476C81.2601 24.468 80.4201 25.252 79.3481 25.828C78.2761 26.404 77.0601 26.692 75.7001 26.692ZM75.7001 23.62C76.3241 23.62 76.8841 23.476 77.3801 23.188C77.8761 22.9 78.2681 22.492 78.5561 21.964C78.8441 21.42 78.9881 20.78 78.9881 20.044C78.9881 19.292 78.8441 18.652 78.5561 18.124C78.2681 17.596 77.8761 17.188 77.3801 16.9C76.8841 16.612 76.3241 16.468 75.7001 16.468C75.0761 16.468 74.5161 16.612 74.0201 16.9C73.5241 17.188 73.1241 17.596 72.8201 18.124C72.5321 18.652 72.3881 19.292 72.3881 20.044C72.3881 20.78 72.5321 21.42 72.8201 21.964C73.1241 22.492 73.5241 22.9 74.0201 23.188C74.5161 23.476 75.0761 23.62 75.7001 23.62ZM93.1307 13.396C94.1547 13.396 95.0667 13.604 95.8667 14.02C96.6827 14.42 97.3227 15.044 97.7867 15.892C98.2507 16.724 98.4827 17.796 98.4827 19.108V26.5H94.7387V19.684C94.7387 18.644 94.5067 17.876 94.0427 17.38C93.5947 16.884 92.9547 16.636 92.1227 16.636C91.5307 16.636 90.9947 16.764 90.5147 17.02C90.0507 17.26 89.6827 17.636 89.4107 18.148C89.1547 18.66 89.0267 19.316 89.0267 20.116V26.5H85.2827V13.588H88.8587V17.164L88.1867 16.084C88.6507 15.22 89.3147 14.556 90.1787 14.092C91.0427 13.628 92.0267 13.396 93.1307 13.396ZM109.796 26.5V23.98L109.556 23.428V18.916C109.556 18.116 109.308 17.492 108.812 17.044C108.332 16.596 107.588 16.372 106.58 16.372C105.892 16.372 105.212 16.484 104.54 16.708C103.884 16.916 103.324 17.204 102.86 17.572L101.516 14.956C102.22 14.46 103.068 14.076 104.06 13.804C105.052 13.532 106.06 13.396 107.084 13.396C109.052 13.396 110.58 13.86 111.668 14.788C112.756 15.716 113.3 17.164 113.3 19.132V26.5H109.796ZM105.86 26.692C104.852 26.692 103.988 26.524 103.268 26.188C102.548 25.836 101.996 25.364 101.612 24.772C101.228 24.18 101.036 23.516 101.036 22.78C101.036 22.012 101.22 21.34 101.588 20.764C101.972 20.188 102.572 19.74 103.388 19.42C104.204 19.084 105.268 18.916 106.58 18.916H110.012V21.1H106.988C106.108 21.1 105.5 21.244 105.164 21.532C104.844 21.82 104.684 22.18 104.684 22.612C104.684 23.092 104.868 23.476 105.236 23.764C105.62 24.036 106.14 24.172 106.796 24.172C107.42 24.172 107.98 24.028 108.476 23.74C108.972 23.436 109.332 22.996 109.556 22.42L110.132 24.148C109.86 24.98 109.364 25.612 108.644 26.044C107.924 26.476 106.996 26.692 105.86 26.692ZM121.969 26.692C120.449 26.692 119.265 26.308 118.417 25.54C117.569 24.756 117.145 23.596 117.145 22.06V10.732H120.889V22.012C120.889 22.556 121.033 22.98 121.321 23.284C121.609 23.572 122.001 23.716 122.497 23.716C123.089 23.716 123.593 23.556 124.009 23.236L125.017 25.876C124.633 26.148 124.169 26.356 123.625 26.5C123.097 26.628 122.545 26.692 121.969 26.692ZM115.153 16.756V13.876H124.105V16.756H115.153ZM133.128 26.692C131.656 26.692 130.36 26.404 129.24 25.828C128.136 25.252 127.28 24.468 126.672 23.476C126.064 22.468 125.76 21.324 125.76 20.044C125.76 18.748 126.056 17.604 126.648 16.612C127.256 15.604 128.08 14.82 129.12 14.26C130.16 13.684 131.336 13.396 132.648 13.396C133.912 13.396 135.048 13.668 136.056 14.212C137.08 14.74 137.888 15.508 138.48 16.516C139.072 17.508 139.368 18.7 139.368 20.092C139.368 20.236 139.36 20.404 139.344 20.596C139.328 20.772 139.312 20.94 139.296 21.1H128.808V18.916H137.328L135.888 19.564C135.888 18.892 135.752 18.308 135.48 17.812C135.208 17.316 134.832 16.932 134.352 16.66C133.872 16.372 133.312 16.228 132.672 16.228C132.032 16.228 131.464 16.372 130.968 16.66C130.488 16.932 130.112 17.324 129.84 17.836C129.568 18.332 129.432 18.924 129.432 19.612V20.188C129.432 20.892 129.584 21.516 129.888 22.06C130.208 22.588 130.648 22.996 131.208 23.284C131.784 23.556 132.456 23.692 133.224 23.692C133.912 23.692 134.512 23.588 135.024 23.38C135.552 23.172 136.032 22.86 136.464 22.444L138.456 24.604C137.864 25.276 137.12 25.796 136.224 26.164C135.328 26.516 134.296 26.692 133.128 26.692Z" fill="#2DC653"/>
</svg>
