<svg width="490" height="364" viewBox="0 0 490 364" fill="none" xmlns="http://www.w3.org/2000/svg">
<g clip-path="url(#clip0_10_269)">
<path d="M247.785 345.942C247.302 345.964 246.824 345.837 246.416 345.579C246.008 345.32 245.689 344.943 245.502 344.497C245.316 344.051 245.271 343.559 245.374 343.086C245.477 342.614 245.722 342.185 246.077 341.857C246.136 341.621 246.179 341.451 246.238 341.215C245.776 340.042 244.974 339.033 243.935 338.318C242.896 337.603 241.667 337.215 240.406 337.203C239.144 337.191 237.908 337.556 236.856 338.251C235.803 338.946 234.982 339.94 234.498 341.104C231.705 347.642 228.089 354.41 229.887 361.611C218.011 336.444 222.049 305.138 239.602 283.616C244.453 280.944 248.386 276.196 249.409 270.684C247.008 271.497 244.014 269.545 245.82 267.016C246.602 266.049 247.392 265.09 248.175 264.124C239.054 254.412 228.186 269.676 238.226 282.784C234.942 286.901 232.097 291.35 229.738 296.058C230.283 291.059 229.633 286.001 227.841 281.302C226.025 276.922 222.622 273.234 219.625 269.447C215.981 264.834 208.481 266.962 207.99 272.817C211.353 273.922 211.79 278.779 207.943 279.444C208.951 290.335 216.067 300.344 225.869 305.12C222.249 315.274 220.836 326.083 221.723 336.827C219.993 324.271 206.513 321.224 197.091 316.234C196.491 315.849 195.793 315.648 195.08 315.653C194.368 315.659 193.673 315.872 193.079 316.266C192.486 316.66 192.02 317.218 191.738 317.872C191.457 318.527 191.372 319.249 191.494 319.951C192.794 320.479 194.039 321.136 195.209 321.91C195.758 322.279 196.179 322.809 196.415 323.426C196.651 324.043 196.69 324.718 196.527 325.359C196.364 325.999 196.007 326.574 195.504 327.003C195.002 327.433 194.379 327.696 193.721 327.758C198.47 339.51 210.749 347.402 223.36 347.357C224.572 352.623 226.328 357.748 228.599 362.651H247.316C247.383 362.443 247.444 362.228 247.504 362.02C245.772 362.129 244.032 362.025 242.325 361.712C246.909 356.286 250.453 353.517 247.786 345.942L247.785 345.942Z" fill="#F2F2F2"/>
<path d="M346.338 10.5346H184.693C183.296 10.5346 181.956 9.97967 180.968 8.99186C179.98 8.00405 179.425 6.66428 179.425 5.26731C179.425 3.87033 179.98 2.53057 180.968 1.54276C181.956 0.554945 183.296 0 184.693 0H346.338C347.735 0 349.075 0.554945 350.063 1.54276C351.051 2.53057 351.606 3.87033 351.606 5.26731C351.606 6.66428 351.051 8.00405 350.063 8.99186C349.075 9.97967 347.735 10.5346 346.338 10.5346Z" fill="#E6E6E6"/>
<path d="M346.338 38.5811H184.693C183.296 38.5811 181.956 38.0261 180.968 37.0383C179.98 36.0505 179.425 34.7107 179.425 33.3138C179.425 31.9168 179.98 30.577 180.968 29.5892C181.956 28.6014 183.296 28.0464 184.693 28.0464H346.338C347.735 28.0464 349.075 28.6014 350.063 29.5892C351.051 30.577 351.606 31.9168 351.606 33.3138C351.606 34.7107 351.051 36.0505 350.063 37.0383C349.075 38.0261 347.735 38.5811 346.338 38.5811Z" fill="#E6E6E6"/>
<path d="M353.4 208.02L282.936 209.838C281.466 209.875 280.042 209.326 278.976 208.314C277.91 207.302 277.289 205.908 277.249 204.439L276.344 169.373C276.308 167.904 276.856 166.48 277.868 165.414C278.881 164.348 280.274 163.728 281.744 163.688L352.208 161.869C353.678 161.833 355.102 162.381 356.168 163.393C357.234 164.406 357.855 165.799 357.895 167.269L358.8 202.334C358.836 203.804 358.288 205.228 357.276 206.293C356.263 207.359 354.869 207.98 353.4 208.02Z" fill="white"/>
<path d="M353.417 208.672L282.952 210.49C281.31 210.531 279.718 209.918 278.527 208.787C277.335 207.656 276.641 206.098 276.597 204.456L275.692 169.39C275.651 167.748 276.264 166.156 277.396 164.965C278.527 163.774 280.085 163.08 281.727 163.036L352.192 161.217C353.834 161.177 355.426 161.789 356.617 162.921C357.809 164.052 358.503 165.609 358.547 167.252L359.452 202.317C359.493 203.96 358.88 205.551 357.749 206.742C356.617 207.933 355.059 208.627 353.417 208.672ZM281.761 164.34C280.464 164.375 279.234 164.923 278.341 165.863C277.448 166.804 276.964 168.06 276.996 169.356L277.901 204.422C277.936 205.719 278.484 206.948 279.425 207.842C280.365 208.735 281.622 209.218 282.919 209.186L353.383 207.368C354.68 207.333 355.91 206.785 356.803 205.844C357.696 204.904 358.18 203.648 358.148 202.351L357.243 167.285C357.208 165.989 356.66 164.759 355.719 163.866C354.779 162.973 353.522 162.489 352.225 162.521L281.761 164.34Z" fill="#CCCCCC"/>
<path d="M310.317 198.528C309.917 198.537 309.521 198.445 309.166 198.26C308.787 198.068 308.467 197.776 308.241 197.416C308.015 197.056 307.892 196.641 307.884 196.216L307.379 176.646C307.368 176.222 307.471 175.802 307.678 175.431C307.885 175.06 308.187 174.752 308.554 174.538C308.92 174.324 309.338 174.213 309.762 174.215C310.187 174.218 310.603 174.334 310.967 174.552L329.787 183.858C330.129 184.063 330.414 184.351 330.615 184.696C330.816 185.041 330.927 185.43 330.937 185.829C330.947 186.228 330.857 186.623 330.674 186.978C330.491 187.332 330.221 187.635 329.89 187.857L311.576 198.121C311.204 198.374 310.767 198.515 310.317 198.528Z" fill="#2DC653"/>
<path d="M265.516 125.886C282.449 125.886 296.176 112.162 296.176 95.231C296.176 78.3005 282.449 64.5756 265.516 64.5756C248.582 64.5756 234.855 78.3005 234.855 95.231C234.855 112.162 248.582 125.886 265.516 125.886Z" fill="#E6E6E6"/>
<path d="M265.516 111.722C265.17 111.722 264.838 111.585 264.593 111.34C264.348 111.095 264.211 110.764 264.211 110.418V80.2295C264.211 79.8835 264.348 79.5517 264.593 79.3071C264.838 79.0624 265.17 78.925 265.516 78.925C265.862 78.925 266.193 79.0624 266.438 79.3071C266.683 79.5517 266.82 79.8835 266.82 80.2295V110.418C266.82 110.764 266.683 111.095 266.438 111.34C266.193 111.585 265.862 111.722 265.516 111.722Z" fill="white"/>
<path d="M280.612 96.6279H250.419C250.073 96.6279 249.741 96.4905 249.497 96.2458C249.252 96.0012 249.115 95.6694 249.115 95.3234C249.115 94.9774 249.252 94.6457 249.497 94.401C249.741 94.1564 250.073 94.0189 250.419 94.0189H280.612C280.958 94.0189 281.29 94.1564 281.535 94.401C281.779 94.6457 281.917 94.9774 281.917 95.3234C281.917 95.6694 281.779 96.0012 281.535 96.2458C281.29 96.4905 280.958 96.6279 280.612 96.6279Z" fill="white"/>
<path d="M152.659 194.372H100.471V135.67H152.659C146.959 143.332 149.78 168.791 152.659 194.372Z" fill="#FFB6B6"/>
<path d="M152.962 344.162H162.355L166.825 307.933L152.96 307.934L152.962 344.162Z" fill="#FFB6B6"/>
<path d="M165.482 345.007V338.64L163.012 338.791L152.959 339.386L150.632 339.529L148.854 360.855L148.758 361.998H155.429L155.643 360.863L156.612 355.702L159.113 360.863L159.661 361.998H177.345C178.397 361.991 179.405 361.57 180.148 360.825C180.891 360.08 181.311 359.072 181.315 358.02C182.062 354.535 167.356 347 165.482 345.007Z" fill="#2F2E41"/>
<path d="M42.9057 333.939L51.0763 338.573L72.8446 309.269L60.7859 302.428L42.9057 333.939Z" fill="#FFB6B6"/>
<path d="M53.3817 340.847L56.5183 335.313L54.3108 334.226L45.2662 329.788L43.1698 328.755L32.8707 343.832L30.4487 347.373L33.1883 348.93L36.2455 350.668L40.3905 345.778L39.93 352.756L54.3742 360.958H54.3822L55.3113 361.482C56.2286 362 57.3142 362.133 58.3296 361.852C59.3449 361.57 60.2071 360.898 60.7269 359.981C63.0933 357.314 54.0249 343.515 53.3817 340.847Z" fill="#2F2E41"/>
<path d="M98.5142 166.326C85.9259 174.666 81.2924 254.796 84.5629 253.488L54.8919 308.775L97.1242 327.703L124.893 231.3L129.521 266.776L123.35 323.076L150.648 329.676L169.53 328.328C164.624 261.22 160.202 190.442 150.05 163.064L98.5142 166.326Z" fill="#2F2E41"/>
<path d="M137.623 71.2025C137.623 71.2025 123.647 69.3952 119.389 71.0981C117.874 71.704 116.359 77.2678 113.518 78.925C108.374 81.9255 104.176 81.4199 104.176 81.4199C106.186 107 106.076 126.844 94.055 163.898C94.0438 164.836 94.2735 165.761 94.7222 166.584C95.1709 167.408 95.8235 168.102 96.6175 168.601C97.4116 169.101 98.3205 169.387 99.2572 169.435C100.194 169.482 101.127 169.288 101.967 168.871L151.354 165.021L157.209 134.21L164.874 118.032L154.944 97.5973L154.092 85.677L141.569 79.5772L137.623 71.2025Z" fill="#2DC653"/>
<path d="M143.793 65.5477L143.808 65.549C144.611 65.6184 145.409 65.3658 146.027 64.8468C146.644 64.3278 147.03 63.5849 147.099 62.7816L148.57 45.8785C148.836 42.8504 148.491 39.7997 147.555 36.9076C145.719 31.2633 141.776 26.5448 136.547 23.7354C133.847 22.2887 130.882 21.4036 127.831 21.1333C115.348 20.0277 110.806 22.6558 103.226 41.7304C95.6462 60.8051 101.753 58.6593 101.753 58.6593C101.717 59.0666 101.764 59.4771 101.89 59.8661C102.138 60.625 102.669 61.259 103.373 61.6355C103.734 61.8283 104.131 61.9464 104.538 61.9831C119.312 65.6335 134.22 69.4803 143.795 65.5479L143.793 65.5477Z" fill="#2F2E41"/>
<path d="M116.153 37.2177C114.32 39.9688 113.343 43.2013 113.346 46.507C113.349 49.8127 114.332 53.0433 116.171 55.7908C118.009 58.5384 120.621 60.6795 123.675 61.9439C126.73 63.2083 130.091 63.5393 133.334 62.8949C135.481 62.4754 137.523 61.6341 139.342 60.4198C141.161 59.2055 142.721 57.6423 143.932 55.8209C145.761 53.0708 146.735 49.8407 146.731 46.5379C146.727 43.2352 145.745 40.0076 143.908 37.2621C142.072 34.5167 139.464 32.3762 136.413 31.1108C133.362 29.8453 130.004 29.5114 126.763 30.1511C124.615 30.5683 122.571 31.4078 120.749 32.621C118.928 33.8342 117.365 35.3968 116.153 37.2184L116.153 37.2177Z" fill="#FFB6B6"/>
<path d="M153.812 47.7205C154.023 45.3257 153.749 42.9129 153.009 40.6256C152.804 35.0198 151.143 29.9521 144.305 30.2106C142.183 29.0747 139.854 28.3771 137.457 28.1593L134.075 27.848C134.037 27.8445 133.999 27.8411 133.961 27.8378C129.228 27.4291 124.528 28.9167 120.892 31.9733C117.257 35.03 114.985 39.4053 114.577 44.1367L114.547 44.4753L121.703 45.1269L124.737 38.5214L124.63 45.3948L128.326 45.7328L129.856 42.4002L129.803 45.8657C135.319 50.6582 143.636 50.8562 153.779 48.0595L153.812 47.7205Z" fill="#2F2E41"/>
<path d="M131.044 63.902C131.109 64.4582 131.016 65.0214 130.776 65.5274C130.656 65.7866 130.499 66.0275 130.311 66.2433C130.151 66.427 129.969 66.5911 129.77 66.7322C129.18 67.1485 128.462 67.3411 127.743 67.2755C127.698 67.2711 127.653 67.266 127.609 67.26C127.564 67.254 127.52 67.247 127.475 67.2389C127.43 67.2312 127.386 67.2223 127.341 67.2121C127.297 67.2019 127.253 67.1908 127.208 67.179L124.708 66.4963L121.859 58.7171L121.263 65.5638L109.893 62.4799L112.421 33.4256L131.777 35.2029L131.25 35.7172C129.499 37.4442 128.258 39.6209 127.665 42.0076C127.076 44.426 126.906 46.9275 127.162 49.4034C127.402 51.9071 127.882 54.3819 128.596 56.7937C129.217 58.9295 129.961 61.0276 130.824 63.0778C130.936 63.3409 131.01 63.6184 131.044 63.902Z" fill="#2F2E41"/>
<path d="M98.0288 262.421L83.8115 176.936C83.5257 175.205 83.9381 173.432 84.9583 172.005C85.9784 170.578 87.523 169.614 89.2532 169.324L153.824 158.589C155.555 158.303 157.328 158.715 158.755 159.735C160.182 160.755 161.147 162.3 161.436 164.03L175.654 249.515C175.94 251.245 175.527 253.018 174.507 254.445C173.487 255.872 171.942 256.836 170.212 257.126L105.641 267.862C103.911 268.147 102.137 267.735 100.71 266.715C99.2827 265.695 98.3186 264.151 98.0288 262.421Z" fill="#E6E6E6"/>
<path d="M98.6876 235.777L89.5473 180.82C89.2796 179.199 89.6659 177.538 90.6213 176.202C91.5767 174.866 93.0233 173.963 94.6437 173.691L150.137 164.465C151.758 164.197 153.419 164.584 154.755 165.539C156.092 166.494 156.995 167.941 157.266 169.561L169.918 245.631C170.186 247.251 169.799 248.912 168.844 250.248C167.888 251.585 166.442 252.488 164.821 252.759L130.444 258.474C123.224 259.667 115.826 257.946 109.872 253.691C103.918 249.436 99.8962 242.994 98.6876 235.777Z" fill="white"/>
<path d="M101.083 194.66C100.821 193.076 101.198 191.453 102.132 190.147C103.066 188.842 104.479 187.959 106.063 187.694L144.558 181.294C146.142 181.032 147.764 181.41 149.07 182.344C150.375 183.278 151.256 184.691 151.519 186.274C151.782 187.857 151.406 189.48 150.474 190.786C149.541 192.092 148.128 192.974 146.545 193.239L108.049 199.639C106.465 199.901 104.842 199.523 103.536 198.59C102.23 197.656 101.348 196.243 101.083 194.66Z" fill="#2DC653"/>
<path d="M104.173 213.241C103.911 211.657 104.289 210.034 105.222 208.728C106.156 207.423 107.57 206.54 109.153 206.275L147.649 199.875C149.232 199.613 150.855 199.991 152.16 200.925C153.466 201.858 154.347 203.272 154.61 204.855C154.873 206.438 154.497 208.061 153.564 209.367C152.631 210.673 151.218 211.555 149.635 211.82L111.14 218.22C109.556 218.482 107.933 218.104 106.626 217.171C105.32 216.237 104.438 214.824 104.173 213.241Z" fill="#2DC653"/>
<path d="M107.263 231.822C107.002 230.238 107.379 228.615 108.313 227.309C109.246 226.004 110.66 225.121 112.243 224.856L150.739 218.456C152.322 218.194 153.945 218.572 155.25 219.506C156.555 220.44 157.436 221.853 157.7 223.436C157.963 225.019 157.587 226.642 156.654 227.948C155.721 229.254 154.308 230.136 152.725 230.401L114.23 236.801C112.646 237.063 111.023 236.685 109.717 235.752C108.411 234.818 107.528 233.405 107.263 231.822Z" fill="#2DC653"/>
<path d="M90.3495 185.858C91.0379 185.137 91.5615 184.276 91.8841 183.333C92.2068 182.39 92.3207 181.389 92.2181 180.397C92.1155 179.406 91.7987 178.449 91.2898 177.592C90.7808 176.736 90.0918 176 89.2703 175.435L96.0466 141.818L87.2074 137.658L79.4511 177.644C78.6038 179.098 78.3191 180.811 78.6509 182.46C78.9828 184.109 79.908 185.579 81.2514 186.591C82.5948 187.604 84.2629 188.088 85.9398 187.953C87.6166 187.818 89.1856 187.073 90.3495 185.858V185.858Z" fill="#FFB6B6"/>
<path d="M104.385 81.534C104.385 81.534 88.8478 87.38 87.9962 95.8945C87.1447 104.409 85.1876 111.998 86.0392 115.404C86.8908 118.81 83.1117 122.68 84.8149 125.234C86.5181 127.789 82.4336 128.629 84.1368 132.886C85.8399 137.143 86.6915 137.995 85.84 138.846C84.9884 139.697 82.2055 157.194 82.2055 157.194L94.3012 159.878L110.083 123.992L104.385 81.534Z" fill="#2DC653"/>
<path d="M160.824 185.858C160.135 185.137 159.612 184.276 159.289 183.333C158.967 182.39 158.853 181.389 158.955 180.397C159.058 179.406 159.375 178.449 159.884 177.592C160.393 176.736 161.082 176 161.903 175.435L155.127 141.818L163.966 137.658L171.722 177.644C172.57 179.098 172.854 180.811 172.522 182.46C172.191 184.109 171.265 185.579 169.922 186.591C168.579 187.604 166.91 188.088 165.234 187.953C163.557 187.818 161.988 187.073 160.824 185.858V185.858Z" fill="#FFB6B6"/>
<path d="M150.686 84.8257C152.303 84.9159 153.867 85.4372 155.214 86.3355C156.562 87.2339 157.645 88.4764 158.35 89.9343C160.905 95.043 170.472 127.246 169.62 129.8C168.769 132.354 172.628 140.603 170.925 142.306C169.221 144.009 167.663 153.933 167.663 153.933L155.252 156.781L151.248 118.884L150.686 84.8257Z" fill="#2DC653"/>
<path d="M443.904 201.441C443.658 200.609 443.597 199.733 443.726 198.875C443.854 198.017 444.17 197.198 444.65 196.475C445.129 195.752 445.762 195.143 446.503 194.691C447.243 194.239 448.074 193.954 448.936 193.858L453.595 173.289L461.187 181.194L455.599 199.515C455.665 200.974 455.193 202.407 454.273 203.542C453.353 204.676 452.049 205.434 450.607 205.672C449.166 205.909 447.687 205.61 446.452 204.83C445.216 204.05 444.31 202.844 443.904 201.441H443.904Z" fill="#A0616A"/>
<path d="M455.099 74.7189L455.472 76.4867L474.92 135.972L461.838 188.982L451.131 183.976L453.655 136.978C434.438 111.324 428.786 102.039 430.462 75.3388L455.099 74.7189Z" fill="#E6E6E6"/>
<path d="M438.525 353.214L428.959 353.213L424.407 316.317L438.527 316.318L438.525 353.214Z" fill="#A0616A"/>
<path d="M438.862 363.192L409.443 363.191V362.819C409.443 359.783 410.65 356.871 412.797 354.724C414.944 352.576 417.857 351.37 420.894 351.37H420.895L426.268 347.294L436.295 351.371L438.863 351.371L438.862 363.192Z" fill="#2F2E41"/>
<path d="M385.95 353.214L376.383 353.213L371.832 316.317L385.952 316.318L385.95 353.214Z" fill="#A0616A"/>
<path d="M386.287 363.192L356.867 363.191V362.819C356.868 359.783 358.074 356.871 360.222 354.724C362.369 352.576 365.281 351.37 368.318 351.37H368.319L373.693 347.294L383.719 351.371L386.287 351.371L386.287 363.192Z" fill="#2F2E41"/>
<path d="M450.16 183.974C450.16 183.974 453.934 192.935 450.16 207.556C446.386 222.177 445.443 258.966 445.443 258.966L439.394 341.577H423.392L422.8 282.077L414.781 217.933L398.742 278.775C398.742 278.775 392.61 324.053 390.251 325.94C387.893 327.826 386.818 341.005 386.818 341.005C381.97 341.732 374.596 339.836 370.245 337.577C372.038 336.802 379.638 186.205 379.873 183.974C380.794 175.249 450.16 183.974 450.16 183.974Z" fill="#2F2E41"/>
<path d="M319.068 168.133C319.933 168.205 320.803 168.086 321.617 167.785C322.431 167.484 323.169 167.009 323.779 166.392C324.389 165.775 324.857 165.032 325.148 164.214C325.44 163.397 325.549 162.526 325.468 161.662L344.661 152.913L335.374 147.091L318.572 156.292C317.13 156.525 315.823 157.279 314.899 158.411C313.975 159.542 313.499 160.973 313.56 162.433C313.621 163.892 314.216 165.279 315.231 166.329C316.246 167.38 317.611 168.021 319.068 168.133L319.068 168.133Z" fill="#A0616A"/>
<path d="M393.789 95.1569L400.306 97.6749L382.044 133.985L334.219 160.34L330.633 149.079L366.879 119.048C379.557 82.1694 387.175 65.692 396.324 65.9177L393.789 95.1569Z" fill="#E6E6E6"/>
<path d="M387.972 74.319C388.802 71.3609 390.621 68.7767 393.126 66.9973C395.631 65.2178 398.67 64.3507 401.737 64.5406C401.786 64.5439 401.835 64.5474 401.884 64.5511C405.959 64.8607 411.174 54.9749 416.575 55.3956C420.376 55.6916 424.269 55.9982 427.921 56.2919C431.176 56.5537 434.24 67.09 436.878 67.3145C441.86 67.7385 443.037 68.0662 443.393 68.1849C444.808 68.6566 450.252 69.029 453.68 73.0287C455.215 74.8192 461.318 91.7672 457.545 109.69C453.771 127.612 449.453 150.829 449.453 150.829C449.453 150.829 453.226 162.043 451.34 166.759C449.453 171.475 453.226 174.777 453.226 176.664C453.226 178.55 452.283 187.983 452.283 187.983C452.283 187.983 385.084 195.114 379.166 187.983C378.972 187.749 387.016 148.657 383.685 117.23C381.857 99.9788 385.265 83.8178 387.972 74.319Z" fill="#E6E6E6"/>
<path d="M421.958 53.3427C432.68 53.3427 441.372 44.6523 441.372 33.9322C441.372 23.2121 432.68 14.5217 421.958 14.5217C411.236 14.5217 402.545 23.2121 402.545 33.9322C402.545 44.6523 411.236 53.3427 421.958 53.3427Z" fill="#A0616A"/>
<path d="M408.646 11.5214C410.037 11.4801 409.56 8.85784 410.681 8.02134C410.686 8.04671 410.692 8.07205 410.698 8.09733C410.845 8.66376 411.17 9.16803 411.625 9.53589C412.08 9.90376 412.641 10.1158 413.226 10.1407C413.811 10.1657 414.388 10.0022 414.873 9.67445C415.358 9.34668 415.725 8.87191 415.919 8.32006C416.105 7.68168 416.442 7.09729 416.9 6.61603C417.359 6.13476 417.927 5.7707 418.556 5.55448C418.626 7.98495 420.464 10.0944 422.658 11.1441C424.852 12.1939 427.353 12.3686 429.784 12.4045C432.216 12.4404 434.683 12.359 437.041 12.954C439.399 13.5489 441.692 14.9477 442.7 17.1608C443.707 19.3738 442.988 22.4207 440.785 23.4507C442.492 23.4598 443.94 24.8678 444.53 26.4689C445.12 28.07 445.03 29.8316 444.9 31.533C444.42 37.8097 443.251 44.5672 438.68 48.8958C435.196 52.1949 430.209 53.5239 425.411 53.5047C420.613 53.4855 421.456 53.0445 416.817 51.82C416.817 51.82 412.406 39.1772 413.517 37.9334C414.627 36.6898 415.55 35.0983 415.349 33.443C415.148 31.7878 413.369 30.3051 411.825 30.9352C412.085 30.2716 412.28 30.1452 412.403 30.1789C412.325 29.9903 412.257 29.7978 412.199 29.6021C411.908 28.6049 411.385 27.6908 410.672 26.9351C409.959 26.1794 409.077 25.6037 408.099 25.2551C407.11 24.9344 406.047 24.9238 405.052 25.2248C404.058 25.5258 403.179 26.1239 402.534 26.9389C397.454 22.1752 400.606 11.7601 408.646 11.5214Z" fill="#2F2E41"/>
<path d="M489.223 363.8L0.776739 364C0.571124 363.999 0.374138 363.917 0.228957 363.772C0.0837752 363.626 0.00224304 363.429 0.00224304 363.223C0.00224304 363.018 0.0837752 362.821 0.228957 362.675C0.374138 362.529 0.571124 362.447 0.776739 362.447L489.223 362.246C489.429 362.246 489.627 362.328 489.772 362.474C489.918 362.619 490 362.817 490 363.023C490 363.229 489.918 363.426 489.772 363.572C489.627 363.718 489.429 363.8 489.223 363.8Z" fill="#CACACA"/>
</g>
<defs>
<clipPath id="clip0_10_269">
<rect width="490" height="364" fill="white"/>
</clipPath>
</defs>
</svg>
