<svg width="599" height="388" viewBox="0 0 599 388" fill="none" xmlns="http://www.w3.org/2000/svg">
<path d="M599 149V388L0 388C16.8333 338.01 90.3 242.788 249.5 261.817C408.7 280.846 548.833 194.535 599 149Z" fill="#2DC653"/>
<g clip-path="url(#clip0_115_81)">
<path d="M275.785 345.942C275.302 345.964 274.824 345.837 274.416 345.579C274.008 345.32 273.689 344.943 273.502 344.497C273.316 344.051 273.271 343.559 273.374 343.086C273.477 342.614 273.722 342.185 274.077 341.857C274.136 341.621 274.179 341.451 274.238 341.215C273.776 340.042 272.974 339.033 271.935 338.318C270.896 337.603 269.667 337.215 268.406 337.203C267.144 337.191 265.908 337.556 264.856 338.251C263.803 338.946 262.982 339.94 262.498 341.104C259.705 347.642 256.089 354.41 257.887 361.611C246.011 336.444 250.049 305.138 267.602 283.616C272.453 280.944 276.386 276.196 277.409 270.684C275.008 271.497 272.014 269.545 273.82 267.016C274.602 266.049 275.392 265.09 276.175 264.124C267.054 254.412 256.186 269.676 266.226 282.784C262.942 286.901 260.097 291.35 257.738 296.058C258.283 291.059 257.633 286.001 255.841 281.302C254.025 276.922 250.622 273.234 247.625 269.447C243.981 264.834 236.481 266.962 235.99 272.817C239.353 273.922 239.79 278.779 235.943 279.444C236.951 290.335 244.067 300.344 253.869 305.12C250.249 315.274 248.836 326.083 249.723 336.827C247.993 324.271 234.513 321.224 225.091 316.234C224.491 315.849 223.793 315.648 223.08 315.653C222.368 315.659 221.673 315.872 221.079 316.266C220.486 316.66 220.02 317.218 219.738 317.872C219.457 318.527 219.372 319.249 219.494 319.951C220.794 320.479 222.039 321.136 223.209 321.91C223.758 322.279 224.179 322.809 224.415 323.426C224.651 324.043 224.69 324.718 224.527 325.359C224.364 325.999 224.007 326.574 223.504 327.003C223.002 327.433 222.379 327.696 221.721 327.758C226.47 339.51 238.749 347.402 251.36 347.357C252.572 352.623 254.328 357.748 256.599 362.651H275.316C275.383 362.443 275.444 362.228 275.504 362.02C273.772 362.129 272.032 362.025 270.325 361.712C274.909 356.286 278.453 353.517 275.786 345.942L275.785 345.942Z" fill="#F2F2F2"/>
<path d="M374.338 10.5346H212.693C211.296 10.5346 209.956 9.97967 208.968 8.99186C207.98 8.00405 207.425 6.66428 207.425 5.26731C207.425 3.87033 207.98 2.53057 208.968 1.54276C209.956 0.554945 211.296 0 212.693 0H374.338C375.735 0 377.075 0.554945 378.063 1.54276C379.051 2.53057 379.606 3.87033 379.606 5.26731C379.606 6.66428 379.051 8.00405 378.063 8.99186C377.075 9.97967 375.735 10.5346 374.338 10.5346Z" fill="#E6E6E6"/>
<path d="M374.338 38.5811H212.693C211.296 38.5811 209.956 38.0261 208.968 37.0383C207.98 36.0505 207.425 34.7107 207.425 33.3138C207.425 31.9168 207.98 30.577 208.968 29.5892C209.956 28.6014 211.296 28.0464 212.693 28.0464H374.338C375.735 28.0464 377.075 28.6014 378.063 29.5892C379.051 30.577 379.606 31.9168 379.606 33.3138C379.606 34.7107 379.051 36.0505 378.063 37.0383C377.075 38.0261 375.735 38.5811 374.338 38.5811V38.5811Z" fill="#E6E6E6"/>
<path d="M381.4 208.02L310.936 209.838C309.466 209.875 308.042 209.326 306.976 208.314C305.91 207.302 305.289 205.908 305.249 204.439L304.344 169.373C304.308 167.904 304.856 166.48 305.868 165.414C306.881 164.348 308.274 163.728 309.744 163.688L380.208 161.869C381.678 161.833 383.102 162.381 384.168 163.393C385.234 164.406 385.855 165.799 385.895 167.269L386.8 202.334C386.836 203.804 386.288 205.228 385.276 206.293C384.263 207.359 382.869 207.98 381.4 208.02V208.02Z" fill="white"/>
<path d="M381.417 208.672L310.952 210.49C309.31 210.531 307.718 209.918 306.527 208.787C305.335 207.656 304.641 206.098 304.597 204.456L303.692 169.39C303.651 167.748 304.264 166.156 305.396 164.965C306.527 163.774 308.085 163.08 309.727 163.036L380.192 161.217C381.834 161.177 383.426 161.789 384.617 162.921C385.809 164.052 386.503 165.609 386.547 167.252L387.452 202.317C387.493 203.96 386.88 205.551 385.749 206.742C384.617 207.933 383.059 208.627 381.417 208.672V208.672ZM309.761 164.34C308.464 164.375 307.234 164.923 306.341 165.863C305.448 166.804 304.964 168.06 304.996 169.356L305.901 204.422C305.936 205.719 306.484 206.948 307.425 207.842C308.365 208.735 309.622 209.218 310.919 209.186L381.383 207.368C382.68 207.333 383.91 206.785 384.803 205.844C385.696 204.904 386.18 203.648 386.148 202.351L385.243 167.285C385.208 165.989 384.66 164.759 383.719 163.866C382.779 162.973 381.522 162.489 380.225 162.521L309.761 164.34Z" fill="#CCCCCC"/>
<path d="M338.317 198.528C337.917 198.537 337.521 198.445 337.166 198.26C336.787 198.068 336.467 197.776 336.241 197.416C336.015 197.056 335.892 196.641 335.884 196.216L335.379 176.646C335.368 176.222 335.471 175.802 335.678 175.431C335.885 175.06 336.187 174.752 336.554 174.538C336.92 174.324 337.338 174.213 337.762 174.215C338.187 174.218 338.603 174.334 338.967 174.552L357.787 183.858C358.129 184.063 358.414 184.351 358.615 184.696C358.816 185.041 358.927 185.43 358.937 185.829C358.947 186.228 358.857 186.623 358.674 186.978C358.491 187.332 358.221 187.635 357.89 187.857L339.576 198.121C339.204 198.374 338.767 198.515 338.317 198.528V198.528Z" fill="#2DC653"/>
<path d="M293.516 125.886C310.449 125.886 324.176 112.162 324.176 95.231C324.176 78.3005 310.449 64.5756 293.516 64.5756C276.582 64.5756 262.855 78.3005 262.855 95.231C262.855 112.162 276.582 125.886 293.516 125.886Z" fill="#E6E6E6"/>
<path d="M293.516 111.722C293.17 111.722 292.838 111.585 292.593 111.34C292.348 111.095 292.211 110.764 292.211 110.418V80.2295C292.211 79.8835 292.348 79.5517 292.593 79.3071C292.838 79.0624 293.17 78.925 293.516 78.925C293.862 78.925 294.193 79.0624 294.438 79.3071C294.683 79.5517 294.82 79.8835 294.82 80.2295V110.418C294.82 110.764 294.683 111.095 294.438 111.34C294.193 111.585 293.862 111.722 293.516 111.722V111.722Z" fill="white"/>
<path d="M308.612 96.6279H278.419C278.073 96.6279 277.741 96.4905 277.497 96.2458C277.252 96.0012 277.115 95.6694 277.115 95.3234C277.115 94.9774 277.252 94.6457 277.497 94.401C277.741 94.1564 278.073 94.0189 278.419 94.0189H308.612C308.958 94.0189 309.29 94.1564 309.535 94.401C309.779 94.6457 309.917 94.9774 309.917 95.3234C309.917 95.6694 309.779 96.0012 309.535 96.2458C309.29 96.4905 308.958 96.6279 308.612 96.6279Z" fill="white"/>
<path d="M180.659 194.372H128.471V135.67H180.659C174.959 143.332 177.78 168.791 180.659 194.372Z" fill="#FFB6B6"/>
<path d="M180.962 344.162H190.355L194.825 307.933L180.96 307.934L180.962 344.162Z" fill="#FFB6B6"/>
<path d="M193.482 345.007V338.64L191.012 338.791L180.959 339.386L178.632 339.529L176.854 360.855L176.758 361.998H183.429L183.643 360.863L184.612 355.702L187.113 360.863L187.661 361.998H205.345C206.397 361.991 207.405 361.57 208.148 360.825C208.891 360.08 209.311 359.072 209.315 358.02C210.062 354.535 195.356 347 193.482 345.007Z" fill="#2F2E41"/>
<path d="M70.9057 333.939L79.0763 338.573L100.845 309.269L88.7859 302.428L70.9057 333.939Z" fill="#FFB6B6"/>
<path d="M81.3817 340.847L84.5183 335.313L82.3108 334.226L73.2662 329.788L71.1698 328.755L60.8707 343.832L58.4487 347.373L61.1883 348.93L64.2455 350.668L68.3905 345.778L67.93 352.756L82.3742 360.958H82.3822L83.3113 361.482C84.2286 362 85.3142 362.133 86.3296 361.852C87.3449 361.57 88.2071 360.898 88.7269 359.981C91.0932 357.314 82.0249 343.515 81.3817 340.847Z" fill="#2F2E41"/>
<path d="M126.514 166.326C113.926 174.666 109.292 254.796 112.563 253.488L82.8919 308.775L125.124 327.703L152.893 231.3L157.521 266.776L151.35 323.076L178.648 329.676L197.53 328.328C192.624 261.22 188.202 190.442 178.05 163.064L126.514 166.326Z" fill="#2F2E41"/>
<path d="M165.623 71.2025C165.623 71.2025 151.647 69.3952 147.389 71.0981C145.874 71.704 144.359 77.2678 141.518 78.925C136.374 81.9255 132.176 81.4199 132.176 81.4199C134.186 107 134.076 126.844 122.055 163.898C122.044 164.836 122.273 165.761 122.722 166.584C123.171 167.408 123.823 168.102 124.618 168.601C125.412 169.101 126.321 169.387 127.257 169.435C128.194 169.482 129.127 169.288 129.967 168.871L179.354 165.021L185.209 134.21L192.874 118.032L182.944 97.5973L182.092 85.677L169.569 79.5772L165.623 71.2025Z" fill="#2DC653"/>
<path d="M171.793 65.5477L171.808 65.549C172.611 65.6184 173.409 65.3658 174.027 64.8468C174.644 64.3278 175.03 63.5849 175.099 62.7816L176.57 45.8785C176.836 42.8504 176.491 39.7997 175.555 36.9076C173.719 31.2633 169.776 26.5448 164.547 23.7354C161.847 22.2887 158.882 21.4036 155.831 21.1333C143.348 20.0277 138.806 22.6558 131.226 41.7304C123.646 60.8051 129.753 58.6593 129.753 58.6593C129.717 59.0666 129.764 59.4771 129.89 59.8661C130.138 60.625 130.669 61.259 131.373 61.6355C131.734 61.8283 132.131 61.9465 132.538 61.9831C147.312 65.6335 162.22 69.4803 171.795 65.5479L171.793 65.5477Z" fill="#2F2E41"/>
<path d="M144.153 37.2177C142.32 39.9688 141.343 43.2013 141.346 46.507C141.349 49.8127 142.332 53.0433 144.171 55.7908C146.009 58.5384 148.621 60.6795 151.675 61.9439C154.73 63.2083 158.091 63.5393 161.334 62.8949C163.481 62.4754 165.523 61.6341 167.342 60.4198C169.161 59.2055 170.721 57.6423 171.932 55.8209C173.761 53.0708 174.735 49.8407 174.731 46.5379C174.727 43.2352 173.745 40.0076 171.908 37.2621C170.072 34.5167 167.464 32.3762 164.413 31.1108C161.362 29.8453 158.004 29.5114 154.763 30.1511C152.615 30.5683 150.571 31.4078 148.749 32.621C146.928 33.8342 145.365 35.3968 144.153 37.2184L144.153 37.2177Z" fill="#FFB6B6"/>
<path d="M181.812 47.7205C182.023 45.3257 181.749 42.9129 181.009 40.6256C180.804 35.0198 179.143 29.9521 172.305 30.2106C170.183 29.0747 167.854 28.3771 165.457 28.1593L162.075 27.848C162.037 27.8445 161.999 27.8411 161.961 27.8378C157.228 27.4291 152.528 28.9167 148.892 31.9733C145.257 35.03 142.985 39.4053 142.577 44.1367L142.547 44.4753L149.703 45.1269L152.737 38.5214L152.63 45.3948L156.326 45.7328L157.856 42.4002L157.803 45.8657C163.319 50.6582 171.636 50.8562 181.779 48.0595L181.812 47.7205Z" fill="#2F2E41"/>
<path d="M159.044 63.902C159.109 64.4582 159.016 65.0214 158.776 65.5274C158.656 65.7866 158.499 66.0275 158.311 66.2433C158.151 66.427 157.969 66.5911 157.77 66.7322C157.18 67.1485 156.462 67.3411 155.743 67.2755C155.698 67.2711 155.653 67.266 155.609 67.26C155.564 67.254 155.52 67.247 155.475 67.2389C155.43 67.2312 155.386 67.2223 155.341 67.2121C155.297 67.2019 155.253 67.1909 155.208 67.179L152.708 66.4963L149.859 58.7171L149.263 65.5638L137.893 62.4799L140.421 33.4256L159.777 35.2029L159.25 35.7172C157.499 37.4442 156.258 39.6209 155.665 42.0076C155.076 44.426 154.906 46.9275 155.162 49.4034C155.402 51.9071 155.882 54.3819 156.596 56.7937C157.217 58.9295 157.961 61.0276 158.824 63.0778C158.936 63.3409 159.01 63.6184 159.044 63.902V63.902Z" fill="#2F2E41"/>
<path d="M126.029 262.421L111.811 176.936C111.526 175.205 111.938 173.432 112.958 172.005C113.978 170.578 115.523 169.614 117.253 169.324L181.824 158.589C183.555 158.303 185.328 158.715 186.755 159.735C188.182 160.755 189.147 162.3 189.436 164.03L203.654 249.515C203.94 251.245 203.527 253.018 202.507 254.445C201.487 255.872 199.942 256.836 198.212 257.126L133.641 267.862C131.911 268.147 130.137 267.735 128.71 266.715C127.283 265.695 126.319 264.151 126.029 262.421V262.421Z" fill="#E6E6E6"/>
<path d="M126.688 235.777L117.547 180.82C117.28 179.199 117.666 177.538 118.621 176.202C119.577 174.866 121.023 173.963 122.644 173.691L178.137 164.465C179.758 164.197 181.419 164.584 182.755 165.539C184.092 166.494 184.995 167.941 185.266 169.561L197.918 245.631C198.186 247.251 197.799 248.912 196.844 250.248C195.888 251.585 194.442 252.488 192.821 252.759L158.444 258.474C151.224 259.667 143.826 257.946 137.872 253.691C131.918 249.436 127.896 242.994 126.688 235.777V235.777Z" fill="white"/>
<path d="M129.083 194.66C128.821 193.076 129.198 191.453 130.132 190.147C131.066 188.842 132.479 187.959 134.063 187.694L172.558 181.294C174.142 181.032 175.764 181.41 177.07 182.344C178.375 183.278 179.256 184.691 179.519 186.274C179.782 187.857 179.406 189.48 178.474 190.786C177.541 192.092 176.128 192.974 174.545 193.239L136.049 199.639C134.465 199.901 132.842 199.523 131.536 198.59C130.23 197.656 129.348 196.243 129.083 194.66V194.66Z" fill="#2DC653"/>
<path d="M132.173 213.241C131.911 211.657 132.289 210.034 133.222 208.728C134.156 207.423 135.57 206.54 137.153 206.275L175.649 199.875C177.232 199.613 178.855 199.991 180.16 200.925C181.466 201.858 182.347 203.272 182.61 204.855C182.873 206.438 182.497 208.061 181.564 209.367C180.631 210.673 179.218 211.555 177.635 211.82L139.14 218.22C137.556 218.482 135.933 218.104 134.626 217.171C133.32 216.237 132.438 214.824 132.173 213.241V213.241Z" fill="#2DC653"/>
<path d="M135.263 231.822C135.002 230.238 135.379 228.615 136.313 227.309C137.246 226.004 138.66 225.121 140.243 224.856L178.739 218.456C180.322 218.194 181.945 218.572 183.25 219.506C184.555 220.44 185.436 221.853 185.7 223.436C185.963 225.019 185.587 226.642 184.654 227.948C183.721 229.254 182.308 230.136 180.725 230.401L142.23 236.801C140.646 237.063 139.023 236.685 137.717 235.752C136.411 234.818 135.528 233.405 135.263 231.822V231.822Z" fill="#2DC653"/>
<path d="M118.35 185.858C119.038 185.137 119.561 184.276 119.884 183.333C120.207 182.39 120.321 181.389 120.218 180.397C120.115 179.406 119.799 178.449 119.29 177.592C118.781 176.736 118.092 176 117.27 175.435L124.047 141.818L115.207 137.658L107.451 177.644C106.604 179.098 106.319 180.811 106.651 182.46C106.983 184.109 107.908 185.579 109.251 186.591C110.595 187.604 112.263 188.088 113.94 187.953C115.617 187.818 117.186 187.073 118.35 185.858V185.858Z" fill="#FFB6B6"/>
<path d="M132.385 81.534C132.385 81.534 116.848 87.38 115.996 95.8945C115.145 104.409 113.188 111.998 114.039 115.404C114.891 118.81 111.112 122.68 112.815 125.234C114.518 127.789 110.434 128.629 112.137 132.886C113.84 137.143 114.692 137.995 113.84 138.846C112.988 139.697 110.205 157.194 110.205 157.194L122.301 159.878L138.083 123.992L132.385 81.534Z" fill="#2DC653"/>
<path d="M188.824 185.858C188.135 185.137 187.612 184.276 187.289 183.333C186.967 182.39 186.853 181.389 186.955 180.397C187.058 179.406 187.375 178.449 187.884 177.592C188.393 176.736 189.082 176 189.903 175.435L183.127 141.818L191.966 137.658L199.722 177.644C200.57 179.098 200.854 180.811 200.522 182.46C200.191 184.109 199.265 185.579 197.922 186.591C196.579 187.604 194.91 188.088 193.234 187.953C191.557 187.818 189.988 187.073 188.824 185.858V185.858Z" fill="#FFB6B6"/>
<path d="M178.686 84.8257C180.303 84.9159 181.867 85.4372 183.214 86.3355C184.562 87.2339 185.645 88.4764 186.35 89.9343C188.905 95.043 198.472 127.246 197.62 129.8C196.769 132.354 200.628 140.603 198.925 142.306C197.221 144.009 195.663 153.933 195.663 153.933L183.252 156.781L179.248 118.884L178.686 84.8257Z" fill="#2DC653"/>
<path d="M471.904 201.441C471.658 200.609 471.597 199.733 471.726 198.875C471.854 198.017 472.17 197.198 472.65 196.475C473.129 195.752 473.762 195.143 474.503 194.691C475.243 194.239 476.074 193.954 476.936 193.858L481.595 173.289L489.187 181.194L483.599 199.515C483.665 200.974 483.193 202.407 482.273 203.542C481.353 204.676 480.049 205.434 478.607 205.672C477.166 205.909 475.687 205.61 474.452 204.83C473.216 204.05 472.31 202.844 471.904 201.441H471.904Z" fill="#A0616A"/>
<path d="M483.099 74.7189L483.472 76.4867L502.92 135.972L489.838 188.982L479.131 183.976L481.655 136.978C462.438 111.324 456.786 102.039 458.462 75.3388L483.099 74.7189Z" fill="#E6E6E6"/>
<path d="M466.525 353.214L456.959 353.213L452.407 316.317L466.527 316.318L466.525 353.214Z" fill="#A0616A"/>
<path d="M466.862 363.192L437.443 363.191V362.819C437.443 359.783 438.65 356.871 440.797 354.724C442.944 352.576 445.857 351.37 448.894 351.37H448.895L454.268 347.294L464.295 351.371L466.863 351.371L466.862 363.192Z" fill="#2F2E41"/>
<path d="M413.95 353.214L404.383 353.213L399.832 316.317L413.952 316.318L413.95 353.214Z" fill="#A0616A"/>
<path d="M414.287 363.192L384.867 363.191V362.819C384.868 359.783 386.074 356.871 388.222 354.724C390.369 352.576 393.281 351.37 396.318 351.37H396.319L401.693 347.294L411.719 351.371L414.287 351.371L414.287 363.192Z" fill="#2F2E41"/>
<path d="M478.16 183.974C478.16 183.974 481.934 192.935 478.16 207.556C474.386 222.177 473.443 258.966 473.443 258.966L467.394 341.577H451.392L450.8 282.077L442.781 217.933L426.742 278.775C426.742 278.775 420.61 324.053 418.251 325.94C415.893 327.826 414.818 341.005 414.818 341.005C409.97 341.732 402.596 339.836 398.245 337.577C400.038 336.802 407.638 186.205 407.873 183.974C408.794 175.249 478.16 183.974 478.16 183.974Z" fill="#2F2E41"/>
<path d="M347.068 168.133C347.933 168.205 348.803 168.086 349.617 167.785C350.431 167.484 351.169 167.009 351.779 166.392C352.389 165.775 352.857 165.032 353.148 164.214C353.44 163.397 353.549 162.526 353.468 161.662L372.661 152.913L363.374 147.091L346.572 156.292C345.13 156.525 343.823 157.279 342.899 158.411C341.975 159.542 341.499 160.973 341.56 162.433C341.621 163.892 342.216 165.279 343.231 166.329C344.246 167.38 345.611 168.021 347.068 168.133L347.068 168.133Z" fill="#A0616A"/>
<path d="M421.789 95.1569L428.306 97.6749L410.044 133.985L362.219 160.34L358.633 149.079L394.879 119.048C407.557 82.1694 415.175 65.692 424.324 65.9177L421.789 95.1569Z" fill="#E6E6E6"/>
<path d="M415.972 74.319C416.802 71.3609 418.621 68.7767 421.126 66.9973C423.631 65.2178 426.67 64.3507 429.737 64.5406C429.786 64.5439 429.835 64.5474 429.884 64.5511C433.959 64.8607 439.174 54.9749 444.575 55.3956C448.376 55.6916 452.269 55.9982 455.921 56.2919C459.176 56.5537 462.24 67.09 464.878 67.3145C469.86 67.7385 471.037 68.0662 471.393 68.1849C472.808 68.6566 478.252 69.029 481.68 73.0287C483.215 74.8192 489.318 91.7672 485.545 109.69C481.771 127.612 477.453 150.829 477.453 150.829C477.453 150.829 481.226 162.043 479.34 166.759C477.453 171.475 481.226 174.777 481.226 176.664C481.226 178.55 480.283 187.983 480.283 187.983C480.283 187.983 413.084 195.114 407.166 187.983C406.972 187.749 415.016 148.657 411.685 117.23C409.857 99.9788 413.265 83.8178 415.972 74.319Z" fill="#E6E6E6"/>
<path d="M449.958 53.3427C460.68 53.3427 469.372 44.6523 469.372 33.9322C469.372 23.2121 460.68 14.5217 449.958 14.5217C439.236 14.5217 430.545 23.2121 430.545 33.9322C430.545 44.6523 439.236 53.3427 449.958 53.3427Z" fill="#A0616A"/>
<path d="M436.646 11.5214C438.037 11.4801 437.56 8.85784 438.681 8.02134C438.686 8.04671 438.692 8.07205 438.698 8.09733C438.845 8.66376 439.17 9.16803 439.625 9.53589C440.08 9.90376 440.641 10.1158 441.226 10.1407C441.811 10.1657 442.388 10.0022 442.873 9.67445C443.358 9.34668 443.725 8.87191 443.919 8.32005C444.105 7.68168 444.442 7.09729 444.9 6.61603C445.359 6.13476 445.927 5.7707 446.556 5.55448C446.626 7.98495 448.464 10.0944 450.658 11.1441C452.852 12.1939 455.353 12.3686 457.784 12.4045C460.216 12.4404 462.683 12.359 465.041 12.954C467.399 13.5489 469.692 14.9477 470.7 17.1608C471.707 19.3738 470.988 22.4207 468.785 23.4507C470.492 23.4598 471.94 24.8678 472.53 26.4689C473.12 28.07 473.03 29.8316 472.9 31.533C472.42 37.8096 471.251 44.5672 466.68 48.8958C463.196 52.1949 458.209 53.5239 453.411 53.5047C448.613 53.4855 449.456 53.0445 444.817 51.82C444.817 51.82 440.406 39.1772 441.517 37.9334C442.627 36.6898 443.55 35.0983 443.349 33.443C443.148 31.7878 441.369 30.3051 439.825 30.9352C440.085 30.2716 440.28 30.1452 440.403 30.1789C440.325 29.9903 440.257 29.7978 440.199 29.6021C439.908 28.6049 439.385 27.6908 438.672 26.9351C437.959 26.1794 437.077 25.6037 436.099 25.2551C435.11 24.9344 434.047 24.9238 433.052 25.2248C432.058 25.5258 431.179 26.1239 430.534 26.9389C425.454 22.1752 428.606 11.7601 436.646 11.5214Z" fill="#2F2E41"/>
<path d="M517.223 363.8L28.7767 364C28.5711 363.999 28.3741 363.917 28.229 363.772C28.0838 363.626 28.0022 363.429 28.0022 363.223C28.0022 363.018 28.0838 362.821 28.229 362.675C28.3741 362.529 28.5711 362.447 28.7767 362.447L517.223 362.246C517.429 362.246 517.627 362.328 517.772 362.474C517.918 362.619 518 362.817 518 363.023C518 363.229 517.918 363.426 517.772 363.572C517.627 363.718 517.429 363.8 517.223 363.8V363.8Z" fill="#CACACA"/>
</g>
<defs>
<clipPath id="clip0_115_81">
<rect width="490" height="364" fill="white" transform="translate(28)"/>
</clipPath>
</defs>
</svg>
