<svg width="141" height="35" viewBox="0 0 141 35" fill="none" xmlns="http://www.w3.org/2000/svg">
<path d="M14 10C14 11.1935 13.5259 12.3381 12.682 13.182C11.8381 14.0259 10.6935 14.5 9.5 14.5C8.90901 14.5001 8.32379 14.3838 7.77777 14.1577C7.23174 13.9316 6.73562 13.6002 6.31773 13.1823C5.89984 12.7644 5.56837 12.2683 5.34227 11.7222C5.11618 11.1762 4.99987 10.591 5 10C5 7.514 7.014 5.5 9.5 5.5C11.986 5.5 14 7.514 14 10ZM0 21.833C0 18.287 6.33 16.5 9.5 16.5C12.67 16.5 19 18.287 19 21.833V29.5H0V21.833ZM35 10C35 11.1935 34.5259 12.3381 33.682 13.182C32.8381 14.0259 31.6935 14.5 30.5 14.5C29.909 14.5001 29.3238 14.3838 28.7778 14.1577C28.2317 13.9316 27.7356 13.6002 27.3177 13.1823C26.8998 12.7644 26.5684 12.2683 26.3423 11.7222C26.1162 11.1762 25.9999 10.591 26 10C26 7.514 28.014 5.5 30.5 5.5C32.986 5.5 35 7.514 35 10ZM23 8.5C23 9.29565 22.6839 10.0587 22.1213 10.6213C21.5587 11.1839 20.7956 11.5 20 11.5C19.2044 11.5 18.4413 11.1839 17.8787 10.6213C17.3161 10.0587 17 9.29565 17 8.5C17 7.70435 17.3161 6.94129 17.8787 6.37868C18.4413 5.81607 19.2044 5.5 20 5.5C20.7956 5.5 21.5587 5.81607 22.1213 6.37868C22.6839 6.94129 23 7.70435 23 8.5ZM21 21.833C21 18.287 27.33 16.5 30.5 16.5C33.67 16.5 40 18.287 40 21.833V29.5H21V21.833Z" fill="#FAFAFA"/>
<path fill-rule="evenodd" clip-rule="evenodd" d="M24.75 15.685C24.484 15.783 24.22 15.887 23.962 15.998C22.792 16.498 21.609 17.174 20.69 18.078C20.444 18.321 20.21 18.586 20 18.875C19.792 18.591 19.5613 18.3245 19.31 18.078C18.391 17.174 17.209 16.498 16.037 15.998C15.7771 15.8869 15.5143 15.7825 15.249 15.685C16.772 14.896 18.73 14.5 20 14.5C21.27 14.5 23.228 14.896 24.75 15.685Z" fill="#FAFAFA"/>
<path d="M49.992 26V9.2H57.624C59.448 9.2 61.056 9.552 62.448 10.256C63.84 10.944 64.928 11.912 65.712 13.16C66.496 14.408 66.888 15.888 66.888 17.6C66.888 19.296 66.496 20.776 65.712 22.04C64.928 23.288 63.84 24.264 62.448 24.968C61.056 25.656 59.448 26 57.624 26H49.992ZM53.88 22.808H57.432C58.552 22.808 59.52 22.6 60.336 22.184C61.168 21.752 61.808 21.144 62.256 20.36C62.72 19.576 62.952 18.656 62.952 17.6C62.952 16.528 62.72 15.608 62.256 14.84C61.808 14.056 61.168 13.456 60.336 13.04C59.52 12.608 58.552 12.392 57.432 12.392H53.88V22.808ZM75.7001 26.192C74.3241 26.192 73.1001 25.904 72.0281 25.328C70.9721 24.752 70.1321 23.968 69.5081 22.976C68.9001 21.968 68.5961 20.824 68.5961 19.544C68.5961 18.248 68.9001 17.104 69.5081 16.112C70.1321 15.104 70.9721 14.32 72.0281 13.76C73.1001 13.184 74.3241 12.896 75.7001 12.896C77.0601 12.896 78.2761 13.184 79.3481 13.76C80.4201 14.32 81.2601 15.096 81.8681 16.088C82.4761 17.08 82.7801 18.232 82.7801 19.544C82.7801 20.824 82.4761 21.968 81.8681 22.976C81.2601 23.968 80.4201 24.752 79.3481 25.328C78.2761 25.904 77.0601 26.192 75.7001 26.192ZM75.7001 23.12C76.3241 23.12 76.8841 22.976 77.3801 22.688C77.8761 22.4 78.2681 21.992 78.5561 21.464C78.8441 20.92 78.9881 20.28 78.9881 19.544C78.9881 18.792 78.8441 18.152 78.5561 17.624C78.2681 17.096 77.8761 16.688 77.3801 16.4C76.8841 16.112 76.3241 15.968 75.7001 15.968C75.0761 15.968 74.5161 16.112 74.0201 16.4C73.5241 16.688 73.1241 17.096 72.8201 17.624C72.5321 18.152 72.3881 18.792 72.3881 19.544C72.3881 20.28 72.5321 20.92 72.8201 21.464C73.1241 21.992 73.5241 22.4 74.0201 22.688C74.5161 22.976 75.0761 23.12 75.7001 23.12ZM93.1307 12.896C94.1547 12.896 95.0667 13.104 95.8667 13.52C96.6827 13.92 97.3227 14.544 97.7867 15.392C98.2507 16.224 98.4827 17.296 98.4827 18.608V26H94.7387V19.184C94.7387 18.144 94.5067 17.376 94.0427 16.88C93.5947 16.384 92.9547 16.136 92.1227 16.136C91.5307 16.136 90.9947 16.264 90.5147 16.52C90.0507 16.76 89.6827 17.136 89.4107 17.648C89.1547 18.16 89.0267 18.816 89.0267 19.616V26H85.2827V13.088H88.8587V16.664L88.1867 15.584C88.6507 14.72 89.3147 14.056 90.1787 13.592C91.0427 13.128 92.0267 12.896 93.1307 12.896ZM109.796 26V23.48L109.556 22.928V18.416C109.556 17.616 109.308 16.992 108.812 16.544C108.332 16.096 107.588 15.872 106.58 15.872C105.892 15.872 105.212 15.984 104.54 16.208C103.884 16.416 103.324 16.704 102.86 17.072L101.516 14.456C102.22 13.96 103.068 13.576 104.06 13.304C105.052 13.032 106.06 12.896 107.084 12.896C109.052 12.896 110.58 13.36 111.668 14.288C112.756 15.216 113.3 16.664 113.3 18.632V26H109.796ZM105.86 26.192C104.852 26.192 103.988 26.024 103.268 25.688C102.548 25.336 101.996 24.864 101.612 24.272C101.228 23.68 101.036 23.016 101.036 22.28C101.036 21.512 101.22 20.84 101.588 20.264C101.972 19.688 102.572 19.24 103.388 18.92C104.204 18.584 105.268 18.416 106.58 18.416H110.012V20.6H106.988C106.108 20.6 105.5 20.744 105.164 21.032C104.844 21.32 104.684 21.68 104.684 22.112C104.684 22.592 104.868 22.976 105.236 23.264C105.62 23.536 106.14 23.672 106.796 23.672C107.42 23.672 107.98 23.528 108.476 23.24C108.972 22.936 109.332 22.496 109.556 21.92L110.132 23.648C109.86 24.48 109.364 25.112 108.644 25.544C107.924 25.976 106.996 26.192 105.86 26.192ZM121.969 26.192C120.449 26.192 119.265 25.808 118.417 25.04C117.569 24.256 117.145 23.096 117.145 21.56V10.232H120.889V21.512C120.889 22.056 121.033 22.48 121.321 22.784C121.609 23.072 122.001 23.216 122.497 23.216C123.089 23.216 123.593 23.056 124.009 22.736L125.017 25.376C124.633 25.648 124.169 25.856 123.625 26C123.097 26.128 122.545 26.192 121.969 26.192ZM115.153 16.256V13.376H124.105V16.256H115.153ZM133.128 26.192C131.656 26.192 130.36 25.904 129.24 25.328C128.136 24.752 127.28 23.968 126.672 22.976C126.064 21.968 125.76 20.824 125.76 19.544C125.76 18.248 126.056 17.104 126.648 16.112C127.256 15.104 128.08 14.32 129.12 13.76C130.16 13.184 131.336 12.896 132.648 12.896C133.912 12.896 135.048 13.168 136.056 13.712C137.08 14.24 137.888 15.008 138.48 16.016C139.072 17.008 139.368 18.2 139.368 19.592C139.368 19.736 139.36 19.904 139.344 20.096C139.328 20.272 139.312 20.44 139.296 20.6H128.808V18.416H137.328L135.888 19.064C135.888 18.392 135.752 17.808 135.48 17.312C135.208 16.816 134.832 16.432 134.352 16.16C133.872 15.872 133.312 15.728 132.672 15.728C132.032 15.728 131.464 15.872 130.968 16.16C130.488 16.432 130.112 16.824 129.84 17.336C129.568 17.832 129.432 18.424 129.432 19.112V19.688C129.432 20.392 129.584 21.016 129.888 21.56C130.208 22.088 130.648 22.496 131.208 22.784C131.784 23.056 132.456 23.192 133.224 23.192C133.912 23.192 134.512 23.088 135.024 22.88C135.552 22.672 136.032 22.36 136.464 21.944L138.456 24.104C137.864 24.776 137.12 25.296 136.224 25.664C135.328 26.016 134.296 26.192 133.128 26.192Z" fill="#FAFAFA"/>
</svg>
