<svg width="40" height="24" viewBox="0 0 40 24" fill="none" xmlns="http://www.w3.org/2000/svg">
<path d="M14 4.5C14 5.69347 13.5259 6.83807 12.682 7.68198C11.8381 8.52589 10.6935 9 9.5 9C8.90901 9.00013 8.32379 8.88383 7.77777 8.65773C7.23174 8.43163 6.73562 8.10016 6.31773 7.68227C5.89984 7.26438 5.56837 6.76826 5.34227 6.22223C5.11618 5.67621 4.99987 5.09099 5 4.5C5 2.014 7.014 0 9.5 0C11.986 0 14 2.014 14 4.5ZM0 16.333C0 12.787 6.33 11 9.5 11C12.67 11 19 12.787 19 16.333V24H0V16.333ZM35 4.5C35 5.69347 34.5259 6.83807 33.682 7.68198C32.8381 8.52589 31.6935 9 30.5 9C29.909 9.00013 29.3238 8.88383 28.7778 8.65773C28.2317 8.43163 27.7356 8.10016 27.3177 7.68227C26.8998 7.26438 26.5684 6.76826 26.3423 6.22223C26.1162 5.67621 25.9999 5.09099 26 4.5C26 2.014 28.014 0 30.5 0C32.986 0 35 2.014 35 4.5ZM23 3C23 3.79565 22.6839 4.55871 22.1213 5.12132C21.5587 5.68393 20.7956 6 20 6C19.2044 6 18.4413 5.68393 17.8787 5.12132C17.3161 4.55871 17 3.79565 17 3C17 2.20435 17.3161 1.44129 17.8787 0.878679C18.4413 0.31607 19.2044 0 20 0C20.7956 0 21.5587 0.31607 22.1213 0.878679C22.6839 1.44129 23 2.20435 23 3V3ZM21 16.333C21 12.787 27.33 11 30.5 11C33.67 11 40 12.787 40 16.333V24H21V16.333Z" fill="#2DC653"/>
<path fill-rule="evenodd" clip-rule="evenodd" d="M24.75 10.185C24.484 10.283 24.22 10.387 23.962 10.498C22.792 10.998 21.609 11.674 20.69 12.578C20.444 12.821 20.21 13.086 20 13.375C19.7921 13.091 19.5613 12.8245 19.31 12.578C18.391 11.674 17.209 10.998 16.037 10.498C15.7771 10.3869 15.5143 10.2825 15.249 10.185C16.772 9.396 18.73 9 20 9C21.27 9 23.228 9.396 24.75 10.185Z" fill="#2DC653"/>
</svg>
